<svg width="153" height="74" viewBox="0 0 153 74" fill="none" xmlns="http://www.w3.org/2000/svg">
<path fill-rule="evenodd" clip-rule="evenodd" d="M109.131 14.3418C109.21 14.3586 109.286 14.391 109.362 14.4369C109.435 14.4822 109.52 14.4925 109.593 14.5308C109.9 14.6934 110.152 14.9926 110.375 15.3674C110.598 15.7422 110.675 16.13 110.603 16.5301C110.56 16.7591 110.507 17 110.442 17.2527C110.375 17.5055 110.254 17.755 110.147 18.0353C109.789 18.9625 109.322 19.8034 108.676 20.5244C105.067 24.5505 84.9377 17.7237 79.5063 25.9109C79.1479 26.4509 78.5391 23.8452 78.0755 22.8995C74.3173 15.2335 100.724 13.1926 106.774 13.967C107.786 14.0966 108.571 14.2209 109.131 14.3418Z" fill="black"/>
<path fill-rule="evenodd" clip-rule="evenodd" d="M57.3066 39.1816C59.9173 42.8157 56.5899 50.3603 56.9995 56.782C57.0028 56.8404 57.0098 56.9133 57.0297 57.0008C57.0503 57.0883 57.081 57.132 57.1215 57.132C57.3244 57.132 57.305 56.7237 57.508 55.9082C58.4606 52.0825 62.3369 40.2682 65.8333 43.2088C66.7444 43.9752 68.8504 61.473 71.6074 61.2483C74.8339 60.9842 78.2488 52.0873 79.2435 54.3448C80.1173 56.3252 79.9592 56.9943 79.957 58.7003C78.8182 62.7669 71.9544 68.9246 68.1455 65.1308C66.6974 63.7466 65.7475 60.5846 64.0295 54.1163C63.8503 53.4413 63.3419 52.8553 62.8578 53.3219C60.1796 55.9088 60.4959 67.5232 57.5052 66.4301C56.9461 66.2265 54.1298 66.0969 53.7287 64.6058C52.4555 59.8722 53.4324 45.503 53.7282 40.2321C53.9112 36.955 55.3463 36.4528 57.3066 39.1816Z" fill="black"/>
<path fill-rule="evenodd" clip-rule="evenodd" d="M52.0362 29.9424C52.0626 30.2383 52.0577 30.5316 52.0227 30.8211C51.9109 31.7473 51.5574 32.472 50.9632 32.9964C50.3684 33.5197 49.7579 33.888 49.1205 34.0328C48.8744 34.0889 48.6218 34.0981 48.373 34.1305C48.1236 34.1624 47.898 34.1678 47.6967 34.1462C47.5348 34.1294 47.3561 34.0814 47.1618 34.0025C46.9665 33.9231 46.7635 33.8632 46.5768 33.7644C46.07 33.4965 45.6409 33.0493 45.2593 32.4817C44.8782 31.9136 44.7222 31.3401 44.7919 30.7606C44.8264 30.4711 44.8836 30.1692 44.9624 29.8554C45.0412 29.5411 45.1422 29.2144 45.2641 28.8752C47.5629 22.5231 51.6303 25.2655 52.0362 29.9424Z" fill="black"/>
<path fill-rule="evenodd" clip-rule="evenodd" d="M116.801 3.55746C119.633 11.7555 125.373 30.753 129.319 36.0132C130.653 35.5028 132.155 34.3233 134.021 32.4736C135.89 30.6245 137.824 28.6473 139.826 26.5427C139.87 26.479 139.925 26.4153 139.991 26.3516C140.058 26.2878 140.136 26.2247 140.225 26.1604C142.581 23.6097 144.839 21.2815 146.994 19.1775C149.152 17.0729 150.83 16.0209 152.031 16.0209C152.298 16.0209 152.498 16.2439 152.631 16.6905C152.866 17.4763 152.98 18.1384 153 18.7211V19.0776C152.938 20.8522 151.947 21.8832 150.886 23.5946C150.408 24.3674 149.293 24.2502 148.713 24.9598C144.208 30.477 136.805 36.4393 132.77 41.0908C133.36 46.8353 145.24 63.4074 144.18 64.5178C136.081 73.001 131.913 47.6837 127.753 47.6837C127.085 47.6837 126.623 48.085 126.085 48.5927C120.067 54.2778 113.025 64.6885 109.152 71.8582C108.572 72.9292 107.605 73.3412 106.582 73.3412C106.36 73.3412 106.138 73.3088 105.916 73.2456C105.694 73.1814 105.443 73.1004 105.183 72.9583C104.509 72.5911 103.912 72.0764 103.382 71.3322C100.773 67.6777 125.668 43.1462 124.449 40.2585C120.771 31.542 109.681 6.14432 111.01 4.44585C111.829 3.40138 114.037 -4.44238 116.801 3.55746Z" fill="black"/>
<path fill-rule="evenodd" clip-rule="evenodd" d="M82.0675 25.4351C82.149 25.4351 82.3006 25.5523 82.5251 25.785C82.7486 26.0178 82.9823 26.2808 83.2263 26.5719C83.3072 26.6886 83.3882 26.8052 83.4691 26.9219C83.5512 27.0385 83.6321 27.1552 83.7131 27.2707C83.9166 27.5624 84.0893 27.8394 84.2312 28.1019C84.3737 28.3638 84.445 28.5825 84.445 28.7575C84.445 29.2819 84.364 29.8209 84.201 30.3744C84.0391 30.9274 83.8761 31.6419 83.7131 32.5163C83.6726 32.6913 83.6321 32.8803 83.5917 33.0844C83.5512 33.288 83.5107 33.5067 83.4691 33.7401C89.3333 35.4952 107.605 31.1462 108.334 31.7732C109.587 32.8511 107.701 35.6157 106.998 36.6245C106.794 36.9161 106.646 37.2655 106.387 37.4988C103.736 39.8978 89.0969 40.5307 84.1217 41.0621C83.8022 41.0967 83.4265 38.6421 83.0665 39.0639C82.9407 39.2119 83.1054 41.3435 83.0087 41.607C83.2333 46.6193 83.9333 51.2449 86.395 54.4139C88.1837 56.7156 91.17 57.867 95.3551 57.867C97.7526 57.867 99.7739 57.59 101.42 57.0364C103.065 56.4823 104.478 55.885 105.656 55.244C106.794 54.6035 107.768 54.0062 108.582 53.4521C109.394 52.8985 110.147 52.6215 110.838 52.6215C111.122 52.6215 111.365 52.8396 111.568 53.2776C111.772 53.7145 111.934 54.1952 112.055 54.7201C112.055 54.8362 112.067 54.982 112.087 55.157C112.107 55.3315 112.117 55.4773 112.117 55.5939C112.117 58.1003 111.03 60.1401 108.857 61.7133C106.682 63.2859 104.274 64.3936 101.633 65.0346C100.616 65.3263 99.6012 65.5299 98.5854 65.6465C97.5696 65.7632 96.6143 65.822 95.7211 65.822C89.1385 65.822 84.4957 63.5052 81.7938 58.8721C79.0908 54.2395 77.741 47.6972 77.741 39.2475C77.741 36.2751 78.0243 33.7109 78.5937 31.555C79.1621 29.3986 79.772 27.7957 80.4218 26.7469C80.7473 26.3391 81.0414 26.0178 81.3059 25.785C81.5698 25.5523 81.8235 25.4351 82.0675 25.4351Z" fill="black"/>
<path fill-rule="evenodd" clip-rule="evenodd" d="M50.6285 39.9545C49.6489 43.7856 48.4739 59.4046 49.3601 62.8582C50.1023 65.7518 44.3245 70.4579 44.2408 62.1146C44.1631 54.415 45.2544 45.8503 44.9991 44.4305C44.8205 43.4411 43.198 45.8249 42.7743 44.943C41.7364 42.7871 43.4501 41.0891 46.3625 37.6825C47.7911 36.0126 51.667 35.8965 50.6285 39.9545Z" fill="black"/>
<path fill-rule="evenodd" clip-rule="evenodd" d="M19.2053 15.4344C18.433 15.4344 17.7626 16.2363 17.1932 17.8387C16.5326 19.7008 10.4439 38.2074 13.5419 36.0234C23.1017 29.2873 21.2687 33.5348 20.2109 16.4837C20.1655 15.7578 19.6933 15.4344 19.2053 15.4344ZM17.3157 6.69302C17.6002 6.69302 17.8841 6.76593 18.1685 6.91175C18.4535 7.05756 18.7379 7.21796 19.0218 7.3924C19.2248 7.50905 19.4283 7.62516 19.6317 7.74181C19.8352 7.859 20.0382 7.94595 20.2411 8.00482C20.3636 8.0626 20.4743 8.10635 20.5763 8.13605C20.6777 8.16414 20.7695 8.17926 20.851 8.17926C20.9319 8.17926 21.0232 8.17926 21.1252 8.17926C21.2266 8.17926 21.3384 8.17926 21.4603 8.17926C21.6228 8.17926 21.775 8.17926 21.9175 8.17926C22.0594 8.17926 22.2117 8.14955 22.3747 8.09177C22.5371 8.09177 22.6899 8.09177 22.8318 8.09177C22.9738 8.09177 23.106 8.09177 23.228 8.09177C23.5119 8.09177 23.7564 8.12093 23.9588 8.17926C24.1622 8.23704 24.3452 8.35423 24.5077 8.52867C24.7516 8.8203 24.8941 9.22804 24.9346 9.75244C25.3178 14.7128 25.7663 19.7375 26.0313 24.7006C26.0724 25.575 26.1231 26.3472 26.1841 27.0175C26.2451 27.6871 26.3773 28.1683 26.5802 28.4594C26.7832 28.6927 27.0066 28.8823 27.2506 29.0275C27.4945 29.1734 27.7385 29.2754 27.9819 29.3337C28.0224 29.3337 28.0526 29.3337 28.0731 29.3337C28.0936 29.3337 28.1239 29.3337 28.1649 29.3337C28.6523 29.5087 29.0895 29.7561 29.4759 30.0769C29.8618 30.3977 30.0545 31.1699 30.0545 32.3937C30.0545 33.2097 30.143 34.6819 29.3539 34.6663C26.7416 34.6139 27.453 44.8214 31.8221 59.0551C31.9236 59.3862 31.7811 59.8571 31.7001 60.4101C31.6192 60.9637 31.4967 61.5318 31.3347 62.1146C31.0908 63.1633 30.6736 64.6242 29.9935 65.4364C29.9125 65.5531 29.831 65.6406 29.7501 65.6989C29.6686 65.7567 29.5876 65.7864 29.5056 65.7864C25.2412 65.7864 22.2014 41.222 22.0524 38.8576C21.8932 36.3377 14.6322 40.4875 9.69635 46.4071C8.88784 47.3764 6.19943 58.2262 6.74078 62.7135C7.55146 69.442 0.875518 72.7904 0.225681 70.81C-0.910994 67.3471 2.59888 54.5635 2.93136 50.8819C3.01232 49.979 3.0528 49.3811 3.0528 49.0895C3.0528 46.4362 0.0869705 44.9694 2.14929 41.8474C3.43493 39.901 6.35811 40.5566 7.44135 36.2837C9.318 28.8752 10.2814 21.0234 12.409 13.8612C12.8765 12.288 13.3735 11.0059 13.9019 10.0144C14.5928 8.61616 15.2631 7.71265 15.9141 7.30491C16.5639 6.89717 17.0313 6.69302 17.3157 6.69302Z" fill="black"/>
<path fill-rule="evenodd" clip-rule="evenodd" d="M38.7015 6.16809C39.8803 6.16809 40.6623 6.6347 41.0477 7.56737C41.4342 8.49897 41.6279 9.72327 41.6279 11.2387C41.6279 12.0547 41.5869 12.9285 41.5054 13.8612C41.4244 14.7938 41.3224 15.7557 41.201 16.7456C41.201 16.9789 41.1805 17.1976 41.1395 17.4018C41.099 17.6054 41.0785 17.8241 41.0785 18.0569C41.038 18.2902 41.0078 18.5089 40.9878 18.713C40.9668 18.9166 40.957 19.1062 40.957 19.2806C40.9166 19.805 40.7023 22.3838 40.3169 27.0175C39.9305 31.6506 39.5343 36.7935 39.1279 42.4463C39.0874 42.7379 39.0566 43.0144 39.0367 43.2769C39.0162 43.5388 39.0064 43.7867 39.0064 44.02C38.5595 49.7306 38.0679 55.0253 37.7872 59.9295C37.5384 64.2748 40.97 68.1907 34.9115 72.6343C34.3669 73.0339 33.6739 71.8669 33.2853 71.6487C31.8561 70.8462 36.0196 18.5089 36.0196 11.0631C36.0196 9.60662 36.1826 8.4266 36.5075 7.52363C36.8324 6.62066 37.5637 6.16809 38.7015 6.16809Z" fill="black"/>
</svg>
