<svg width="181" height="51" viewBox="0 0 181 51" fill="none" xmlns="http://www.w3.org/2000/svg">
<path d="M153.218 14.9235V36.0131C153.218 38.315 153.624 40.3752 154.456 42.2032C155.278 44.036 156.67 45.5206 158.658 46.6667C160.636 47.8225 163.257 48.3932 166.502 48.3932C175.545 48.3932 180.072 44.2633 180.072 36.0083V14.9187C180.072 6.70724 175.545 2.59668 166.502 2.59668C163.238 2.59668 160.621 3.14798 158.668 4.25058C156.724 5.3435 155.326 6.8233 154.485 8.66097C153.633 10.5131 153.218 12.5926 153.218 14.9139V14.9235ZM166.386 10.165C167.706 10.165 168.591 10.5422 169.06 11.2772C169.529 12.0171 169.766 13.1729 169.766 14.7301V36.2598C169.766 37.8605 169.549 39.0259 169.109 39.7465C168.673 40.4767 167.754 40.8298 166.381 40.8298C165.1 40.8298 164.239 40.4767 163.803 39.7465C163.368 39.0259 163.146 37.8653 163.146 36.2598V14.7301C163.146 13.1487 163.363 11.9929 163.789 11.253C164.215 10.5228 165.08 10.1601 166.381 10.1601L166.386 10.165ZM121.939 14.9235V36.0131C121.939 38.315 122.345 40.3752 123.177 42.2032C123.999 44.036 125.391 45.5206 127.379 46.6667C129.357 47.8225 131.978 48.3932 135.223 48.3932C144.266 48.3932 148.793 44.2633 148.793 36.0083V14.9187C148.793 6.70724 144.266 2.59668 135.223 2.59668C131.954 2.59668 129.342 3.14798 127.389 4.25058C125.445 5.3435 124.047 6.8233 123.206 8.66097C122.35 10.5131 121.934 12.5926 121.934 14.9139L121.939 14.9235ZM135.112 10.165C136.432 10.165 137.317 10.5422 137.786 11.2772C138.255 12.0171 138.492 13.1729 138.492 14.7301V36.2598C138.492 37.8605 138.274 39.0259 137.839 39.7465C137.404 40.4767 136.485 40.8298 135.112 40.8298C133.83 40.8298 132.969 40.4767 132.529 39.7465C132.094 39.0259 131.876 37.8653 131.876 36.2598V14.7301C131.876 13.1487 132.094 11.9929 132.52 11.253C132.945 10.5228 133.811 10.1601 135.112 10.1601V10.165ZM100.438 11.0499L99.6448 20.5284C100.622 19.3968 101.686 18.5215 102.817 17.9267C103.954 17.3222 105.462 17.0223 107.334 17.0223C110.603 17.0223 113.089 18.2797 114.796 20.7896C116.503 23.2946 117.354 26.9796 117.354 31.8397C117.354 37.8556 116.295 42.1209 114.158 44.626C112.025 47.1358 108.736 48.3932 104.302 48.3932C101.971 48.3932 99.964 48.1127 98.2859 47.5517C96.6127 47.0004 95.249 46.1493 94.1947 45.0129C93.155 43.8667 92.3522 42.3579 91.8203 40.4671C91.2786 38.5714 91.0078 36.4 91.0078 33.9433H100.423C100.423 36.4822 100.704 38.2812 101.265 39.3209C101.826 40.3703 102.73 40.8926 103.992 40.8926C104.848 40.8926 105.521 40.6557 106.009 40.1624C106.459 39.7562 106.802 38.9147 107.058 37.6332C107.31 36.3517 107.436 34.543 107.436 32.2024C107.436 30.7274 107.373 29.4749 107.257 28.4884C107.131 27.4873 106.923 26.7088 106.642 26.1381C106.111 25.0258 105.187 24.4649 103.867 24.4649C102.068 24.4649 100.912 25.5481 100.423 27.7195H91.5253L92.7729 3.54936H115.729V11.0499H100.423H100.438ZM69.1058 22.0807C70.75 19.5419 73.1003 18.2748 76.1711 18.2748C82.4965 18.2748 85.6496 22.8013 85.6496 31.8445V33.2808C85.6496 36.4435 85.224 39.1372 84.3584 41.3424C83.4927 43.5476 82.0806 45.274 80.1221 46.5265C78.1539 47.7742 75.6295 48.398 72.549 48.398C70.2712 48.398 68.1676 47.9821 66.2526 47.16C64.3278 46.3379 62.7368 44.9742 61.4746 43.0591C60.8798 42.1209 60.4349 41.0184 60.1012 39.7513C59.7772 38.4795 59.6128 37.077 59.6128 35.5295V14.9235C59.6128 12.2396 60.1641 9.98119 61.2667 8.13869C62.3596 6.29619 63.8781 4.93245 65.8222 4.02813C67.7565 3.1238 69.9231 2.66438 72.2927 2.66438C74.8751 2.66438 77.1286 3.06093 79.0678 3.85886C80.9926 4.65196 82.511 5.92865 83.6233 7.70828C84.7259 9.48791 85.2772 11.7366 85.2772 14.4593H75.7987C75.7987 13.3228 75.4844 12.3653 74.8702 11.6061C74.2464 10.8468 73.3904 10.4599 72.2878 10.4599C70.1552 10.4599 69.0913 11.7898 69.0913 14.4544V22.0711L69.1058 22.0807ZM69.1058 32.6957C69.1058 34.6542 69.188 36.1824 69.3766 37.2947C69.5555 38.4166 69.8989 39.2097 70.3873 39.6788C70.8661 40.1479 71.5915 40.3752 72.5538 40.3752C73.0954 40.3752 73.5307 40.3316 73.8644 40.2591C74.1884 40.1769 74.4882 40.0076 74.7687 39.7707C75.2378 39.3645 75.5908 38.5714 75.8278 37.4059C76.055 36.2308 76.1711 34.6784 76.1711 32.7537C76.1711 31.5786 76.1082 30.5679 75.9922 29.7361C75.8664 28.9043 75.6585 28.1934 75.378 27.6324C74.8461 26.5105 73.8982 25.9592 72.549 25.9592C71.1997 25.9592 70.2906 26.5008 69.8021 27.6034C69.5749 28.1354 69.4056 28.8124 69.2799 29.6635C69.1541 30.505 69.1009 31.5157 69.1009 32.6908L69.1058 32.6957Z" fill="black"/>
<path fill-rule="evenodd" clip-rule="evenodd" d="M22.4921 7.71784L22.0617 7.57275C21.5152 7.73234 21.5297 7.65497 20.9688 7.93545C20.6109 8.10955 20.3014 8.2643 19.9435 8.44323C19.7259 8.55446 17.927 9.40558 17.9028 9.47328C17.8399 9.65221 19.9049 13.637 20.1515 14.1352C20.5384 14.9186 20.9011 15.6536 21.2928 16.4371C21.4717 16.7998 22.2261 18.6326 22.4969 18.7487C22.879 18.1345 26.2013 17.2398 26.5156 16.321L26.5978 16.084C26.7574 15.6053 25.0165 12.4426 24.7166 11.8381C24.3684 11.1272 24.0396 10.4647 23.6866 9.75862C23.5028 9.39108 23.3481 9.0719 23.1643 8.70437C23.0724 8.5206 23.0047 8.38036 22.9128 8.19176C22.7532 7.86775 22.6759 7.9403 22.4969 7.71784H22.4921Z" fill="black"/>
<path fill-rule="evenodd" clip-rule="evenodd" d="M38.1123 40.008L38.2574 39.5776L38.2864 39.3213C38.1462 39.1279 37.474 37.6287 37.295 37.2709C36.9517 36.5745 36.6277 35.9216 36.2843 35.2253C35.9893 34.6304 34.5772 31.4145 34.0985 31.2501L33.7164 31.1195C33.1023 30.9116 30.1137 32.9282 29.4946 32.8895L29.4463 32.9137L34.0211 42.16C34.2532 42.0923 35.8975 41.2896 36.1247 41.1445C36.3907 40.9704 36.8163 40.8301 37.15 40.6367C37.2564 40.5738 37.5368 40.4384 37.6626 40.3804C37.9527 40.2402 37.9092 40.1724 38.1172 40.0177L38.1123 40.008Z" fill="black"/>
<path fill-rule="evenodd" clip-rule="evenodd" d="M13.8163 13.2068L13.3956 14.4496C13.4004 14.4787 13.1876 15.8327 13.1634 15.9198C13.0425 16.4082 13.1296 16.9644 12.999 17.3561C13.0861 17.6801 13.0135 18.9181 13.0667 19.392C13.1248 19.9578 13.2021 20.7412 13.3327 21.2925C13.6084 22.458 13.8695 23.8362 14.2951 24.9147C14.5223 25.4901 14.6868 26.0995 14.8947 26.6895C15.1075 27.2746 15.3832 27.8066 15.6008 28.3724C16.0553 29.5378 16.6212 30.5776 17.1676 31.6995C18.0187 33.4405 19.9386 36.4049 21.2443 37.8847C22.0326 38.7745 22.9708 39.8723 23.996 40.6267C24.5328 41.0184 25.0696 41.4826 25.6692 41.8308C25.853 41.9372 27.7148 42.8415 27.7197 42.8464L28.6288 43.1511C28.6724 43.1414 29.5477 43.3106 29.6347 43.33C30.0796 43.446 30.1908 43.4074 30.5584 43.4267C31.0275 43.4509 31.8496 43.3155 32.1736 43.0688C31.9898 42.3966 27.5456 33.6726 27.473 33.6484L27.4247 33.6339C27.2312 33.5662 26.472 33.484 26.206 33.4259C26.0416 33.3921 25.234 32.9472 25.1228 32.865C24.5183 32.4201 24.2765 31.8349 23.9283 31.2643C23.2464 30.1472 22.6564 28.9333 22.0761 27.763C21.5006 26.6024 20.8913 25.3644 20.4174 24.1651C20.1707 23.5412 19.8709 22.9851 19.8709 22.2452C19.8709 22.0759 19.9918 21.2393 20.074 21.0266C20.1901 20.7461 20.6011 20.1029 20.6398 19.9917L20.6737 19.8949C20.7366 19.716 18.6136 15.6151 18.3621 15.1073C18.0671 14.5125 16.2536 10.547 15.9393 10.4116C15.8426 10.5567 15.1123 11.0693 14.7496 11.5481C14.5707 11.7899 14.4353 12.0607 14.2419 12.2928C14.0774 12.4911 14.0146 13.0521 13.8211 13.2116L13.8163 13.2068Z" fill="black"/>
<path d="M25.6451 51C11.5047 51 0 39.563 0 25.5C0 11.437 11.5047 0 25.6451 0C39.7854 0 51.2902 11.437 51.2902 25.5C51.2902 39.563 39.7854 51 25.6451 51ZM25.6451 3.97999C13.6954 3.97999 3.97999 13.6326 3.97999 25.5C3.97999 37.3674 13.7003 47.02 25.6451 47.02C37.5899 47.02 47.3102 37.3674 47.3102 25.5C47.3102 13.6326 37.5899 3.97999 25.6451 3.97999Z" fill="black"/>
</svg>
