<svg width="50" height="50" viewBox="0 0 50 50" fill="none" xmlns="http://www.w3.org/2000/svg">
<path d="M44.2045 34.5605L13.4549 34.5653C12.3326 34.5653 11.555 35.4343 11.523 36.4283C11.4909 37.4223 12.3102 38.4018 13.442 38.4018L28.7928 38.405C29.8926 38.405 30.6814 39.282 30.7135 40.2664C30.7487 41.3085 29.9135 42.2367 28.8056 42.2383L22.6958 42.2496C23.5679 44.7378 22.7198 47.367 20.7014 48.866C18.6268 50.4067 15.7795 50.3682 13.7579 48.8067C11.7057 47.2227 10.9458 44.5149 11.9302 42.0139C9.0444 41.2107 7.31293 38.4932 7.72015 35.6315C8.11614 32.8499 10.521 30.7176 13.4356 30.7224C13.7659 30.7224 14.0496 30.708 14.4905 30.6824L4.43515 3.86215L1.91009 3.83489C0.83914 3.82367 0.0279127 2.97236 0.000657968 1.97516C-0.0265967 0.977963 0.795853 0.00641328 1.91169 0.00481007L5.76101 0C6.54659 0.0400804 7.16223 0.416837 7.52295 1.15592L18.6092 30.7256H42.534L45.7308 11.5239H17.2929C16.1819 11.5015 15.3915 10.6582 15.3643 9.65617C15.337 8.65416 16.137 7.68261 17.2929 7.68261H47.9865C49.1376 7.68261 50.0932 8.68783 49.9008 9.84856L46.0498 32.9621C45.9056 33.8279 45.1809 34.5589 44.2045 34.5605ZM16.7895 42.3169C15.6625 42.6167 15.1382 43.755 15.4509 44.7378C15.7635 45.7205 16.7815 46.2752 17.7659 46.0155C18.7503 45.7558 19.4076 44.6961 19.1286 43.6764C18.8641 42.7097 17.8829 42.0251 16.7895 42.3169Z" fill="white"/>
<path d="M39.475 38.4756C42.7119 37.9979 45.5463 40.2472 46.0113 43.3205C46.4762 46.3939 44.2958 49.3951 41.1615 49.8601C38.0625 50.3186 35.1463 48.2007 34.6397 45.1017C34.133 42.0027 36.2076 38.9582 39.4766 38.4772L39.475 38.4756ZM39.8341 42.3169C38.7086 42.6135 38.1796 43.7518 38.4938 44.7394C38.8016 45.7093 39.8213 46.2785 40.804 46.0155C41.8237 45.743 42.4489 44.6977 42.1716 43.6716C41.9119 42.7097 40.9307 42.0267 39.8341 42.3153V42.3169Z" fill="white"/>
</svg>
