<svg width="263" height="126" viewBox="0 0 263 126" fill="none" xmlns="http://www.w3.org/2000/svg">
<path d="M108.899 0V2.89934H104.976V18.0197H101.56V2.89934H97.5437V0H108.899Z" fill="black"/>
<path d="M110.253 13.9738V8.47968C110.253 7.6524 110.408 6.90019 110.718 6.22611C111.036 5.553 111.55 5.02072 112.27 4.62885C112.984 4.23847 113.924 4.04736 115.089 4.04736C116.225 4.04736 117.153 4.24259 117.867 4.63702C118.583 5.02882 119.103 5.56528 119.427 6.23836C119.588 6.5796 119.711 6.93306 119.794 7.29895C119.823 7.46129 119.851 7.64835 119.876 7.86004C119.9 8.06872 119.912 8.27633 119.912 8.47968V13.9738C119.912 14.8052 119.751 15.5505 119.431 16.2111C119.111 16.8732 118.591 17.4083 117.871 17.8122C117.153 18.2191 116.225 18.4239 115.089 18.4239C113.924 18.4239 112.99 18.2246 112.274 17.8247C112.086 17.7208 111.925 17.617 111.778 17.5134C111.637 17.4125 111.497 17.2882 111.346 17.1422C111.105 16.8772 110.897 16.5688 110.726 16.2276C110.412 15.5545 110.253 14.8052 110.253 13.9738ZM116.706 14.3767V8.0893C116.706 7.48193 116.574 7.05316 116.308 6.8129C116.182 6.70379 116.013 6.61222 115.796 6.52897C115.697 6.49635 115.593 6.47578 115.484 6.45946C115.376 6.44313 115.244 6.43353 115.089 6.43353C113.991 6.43353 113.443 6.98769 113.443 8.0893V14.3767C113.443 15.4754 113.991 16.024 115.089 16.024C115.609 16.024 116.009 15.8998 116.286 15.6502C116.569 15.4044 116.706 14.98 116.706 14.3767Z" fill="black"/>
<path d="M123.249 4.40088H131.828V18.0197H128.758V6.81274H126.248V12.281C126.248 13.7991 126.115 15.0002 125.844 15.886C125.578 16.772 125.211 17.3917 124.742 17.7454C124.275 18.0988 123.718 18.2736 123.066 18.2777C122.501 18.2736 121.909 18.1902 121.303 18.0197V15.7659L121.973 15.8493C122.281 15.8493 122.517 15.7905 122.678 15.6704C122.841 15.5462 122.962 15.2882 123.045 14.8882L123.154 14.1101L123.202 13.1464L123.249 9.5905V4.40088Z" fill="black"/>
<path d="M137.504 11.903V15.6704H138.489C139.76 15.6704 140.392 15.0383 140.392 13.7784C140.392 13.1464 140.217 12.6757 139.864 12.3685C139.509 12.0558 139.053 11.903 138.489 11.903H137.504ZM134.437 18.0197V4.40088H137.504V9.55235H139.468C140.165 9.55235 140.829 9.71085 141.461 10.0356C142.088 10.3552 142.599 10.83 142.995 11.4661C143.388 12.0983 143.586 12.8723 143.586 13.7784C143.586 14.6808 143.384 15.4534 142.987 16.0949C142.807 16.3857 142.583 16.6641 142.303 16.9221C142.063 17.1598 141.771 17.359 141.44 17.5255C141.106 17.6921 140.782 17.8163 140.462 17.8995C140.137 17.9787 139.809 18.0197 139.468 18.0197H134.437Z" fill="black"/>
<path d="M145.669 18.0197V4.40088H148.737V9.45285L151.554 4.40088H154.767L151.554 9.88138L154.767 18.0197H151.357L149.459 12.7301L148.737 14.1197V18.0197H145.669Z" fill="black"/>
<path d="M155.796 13.9738V8.47968C155.796 7.6524 155.949 6.90019 156.26 6.22611C156.577 5.553 157.093 5.02072 157.812 4.62885C158.526 4.23847 159.467 4.04736 160.631 4.04736C161.768 4.04736 162.694 4.24259 163.409 4.63702C164.126 5.02882 164.646 5.56528 164.969 6.23836C165.132 6.5796 165.253 6.93306 165.335 7.29895C165.365 7.46129 165.394 7.64835 165.418 7.86004C165.443 8.06872 165.455 8.27633 165.455 8.47968V13.9738C165.455 14.8052 165.294 15.5505 164.975 16.2111C164.654 16.8732 164.134 17.4083 163.413 17.8122C162.694 18.2191 161.768 18.4239 160.631 18.4239C159.467 18.4239 158.53 18.2246 157.816 17.8247C157.629 17.7208 157.466 17.617 157.321 17.5134C157.18 17.4125 157.04 17.2882 156.888 17.1422C156.648 16.8772 156.441 16.5688 156.269 16.2276C155.953 15.5545 155.796 14.8052 155.796 13.9738ZM162.249 14.3767V8.0893C162.249 7.48193 162.116 7.05316 161.851 6.8129C161.725 6.70379 161.555 6.61222 161.34 6.52897C161.24 6.49635 161.135 6.47578 161.027 6.45946C160.919 6.44313 160.787 6.43353 160.631 6.43353C159.534 6.43353 158.984 6.98769 158.984 8.0893V14.3767C158.984 15.4754 159.534 16.024 160.631 16.024C161.151 16.024 161.551 15.8998 161.828 15.6502C162.112 15.4044 162.249 14.98 162.249 14.3767Z" fill="black"/>
<path d="M11.6767 50.3719L12.2706 48.9605L12.7412 47.661C12.9821 46.9102 13.2004 46.0245 13.4022 45.0224L13.649 43.5263C13.677 43.2287 13.7051 42.9434 13.7273 42.6638C13.7497 42.3893 13.761 42.0916 13.761 41.7887L13.8281 39.7834L13.8954 37.3742V29.8052H27.6669V50.3719H29.1568V58.9567H24.7082V54.082H14.6628V58.9567H10.2145V50.3719H11.6767ZM23.0669 33.4975H18.4223V39.0108C18.4223 41.6837 18.2544 43.8294 17.9126 45.4483C17.7274 46.3669 17.5093 47.1956 17.2568 47.9409C17.1281 48.3502 16.9823 48.7367 16.8202 49.1065C16.6629 49.482 16.4669 49.9024 16.2375 50.3719H23.0669V33.4975Z" fill="black"/>
<path d="M34.0984 29.8052H48.1499V54.082H43.5389V33.4648H38.6309V42.8206C38.6309 45.5986 38.4626 47.8399 38.1265 49.5434C37.7963 51.2469 37.247 52.5013 36.4852 53.3081C35.7287 54.1203 34.7091 54.5244 33.4262 54.5244C32.2999 54.5244 31.3701 54.4232 30.636 54.2105V50.8155C30.9833 50.9275 31.4763 50.9781 32.1151 50.9781C32.5185 50.9781 32.832 50.8879 33.056 50.6968C33.2801 50.5127 33.4765 50.1098 33.6391 49.4873L33.8688 48.2207C33.9025 47.9695 33.9302 47.717 33.9528 47.4591C33.9752 47.2011 33.9863 46.9321 33.9863 46.6468L34.0648 43.7393L34.0984 41.442V29.8052Z" fill="black"/>
<path d="M66.4874 54.082V29.8052H57.6072C56.3578 29.8052 55.2597 30.119 54.3128 30.747C53.3663 31.3791 52.632 32.2376 52.1054 33.3188C51.8869 33.8334 51.7076 34.3943 51.562 34.9991C51.4217 35.6093 51.3488 36.2371 51.3488 36.8978C51.3488 37.9121 51.5059 38.8758 51.8084 39.7834C52.1166 40.6913 52.5537 41.4761 53.1138 42.1312C53.6795 42.7865 54.3632 43.2971 55.1586 43.6616L50.4471 54.082H55.4558L59.624 44.198H61.8709V54.082H66.4874ZM59.5569 33.402H61.8709V40.6066H59.5569C57.2484 40.6066 56.0942 39.3918 56.0942 36.9606C56.0942 34.5842 57.2484 33.402 59.5569 33.402Z" fill="black"/>
<path d="M82.1633 54.082V29.8052H86.7576V39.2292H92.8475V29.8052H97.4418V54.082H92.8475V42.8875H86.7576V54.082H82.1633Z" fill="black"/>
<path d="M99.4587 54.082L105.616 29.8052H111.801L117.185 54.082H112.216L111.067 47.762H105.862L104.417 54.082H99.4587ZM106.423 44.1651H110.49L108.653 32.8587L106.423 44.1651Z" fill="black"/>
<path d="M128.856 37.6994V37.1726C128.856 35.6656 128.648 34.6021 128.234 33.9906C127.813 33.3805 127.113 33.0719 126.133 33.0719C125.147 33.0719 124.435 33.3805 123.998 33.9906C123.561 34.6021 123.343 35.6656 123.343 37.1726V46.7139C123.343 48.2661 123.55 49.3527 123.971 49.9804C124.396 50.6029 125.102 50.9168 126.098 50.9168C127.051 50.9168 127.746 50.5907 128.188 49.9531C128.632 49.3143 128.856 48.2333 128.856 46.7139V45.3982H133.484V46.5121C133.484 48.1323 133.265 49.5329 132.828 50.7094C132.392 51.886 131.617 52.832 130.502 53.55C129.394 54.2667 127.937 54.6257 126.133 54.6257C123.354 54.6257 121.404 53.8804 120.295 52.4006C119.186 50.9168 118.631 48.9553 118.631 46.5121V37.6994C118.631 34.8766 119.264 32.7813 120.524 31.4135C121.791 30.0472 123.679 29.3633 126.194 29.3633C127.73 29.3633 129.04 29.6484 130.139 30.2259C131.231 30.7977 132.06 31.6373 132.632 32.7362C133.198 33.8338 133.484 35.1114 133.484 36.5679V37.6994H128.856Z" fill="black"/>
<path d="M150.672 29.8052V33.7104H145.389V54.082H140.789V33.7104H135.377V29.8052H150.672Z" fill="black"/>
<path d="M152.661 37.6666V46.3497C152.661 51.8014 155.299 54.5247 160.573 54.5247C162.202 54.5247 163.587 54.2722 164.718 53.7629C165.85 53.2526 166.741 52.3843 167.391 51.1571C168.046 49.9356 168.371 48.3342 168.371 46.3497V37.6666C168.371 35.6655 168.052 34.0522 167.418 32.8249C166.779 31.5991 165.884 30.7186 164.718 30.1755C163.552 29.6321 162.168 29.3633 160.573 29.3633C159.766 29.3633 159.021 29.4302 158.342 29.5599C157.665 29.688 157.021 29.9011 156.42 30.1808C155.25 30.7296 154.33 31.6265 153.664 32.8753C152.998 34.1189 152.661 35.7228 152.661 37.6666ZM157.373 46.9269V37.1453C157.373 34.4275 158.438 33.0719 160.573 33.0719C161.547 33.0719 162.304 33.4364 162.847 34.1709C163.39 34.9039 163.659 35.918 163.659 37.2067V46.9269C163.659 48.1704 163.39 49.1342 162.852 49.8071C162.32 50.4787 161.558 50.8158 160.573 50.8158C158.438 50.8158 157.373 49.5205 157.373 46.9269Z" fill="black"/>
<path d="M186.328 54.082V29.8052H177.447C176.198 29.8052 175.099 30.119 174.153 30.747C173.206 31.3791 172.471 32.2376 171.946 33.3188C171.728 33.8334 171.547 34.3943 171.403 34.9991C171.262 35.6093 171.19 36.2371 171.19 36.8978C171.19 37.9121 171.345 38.8758 171.648 39.7834C171.957 40.6913 172.394 41.4761 172.953 42.1312C173.52 42.7865 174.204 43.2971 174.999 43.6616L170.287 54.082H175.296L179.464 44.198H181.711V54.082H186.328ZM179.398 33.402H181.711V40.6066H179.398C177.088 40.6066 175.934 39.3918 175.934 36.9606C175.934 34.5842 177.088 33.402 179.398 33.402Z" fill="black"/>
<path d="M190.054 29.8052H194.646V50.3719H199.639V29.8052H204.232V50.3719H209.209V29.8052H213.819V50.3719H215.297V58.9567H210.867V54.082H190.054V29.8052Z" fill="black"/>
<path d="M233.158 54.082V29.8052H228.186L221.424 47.4481C221.528 46.9608 221.641 46.2374 221.747 45.2859L221.916 43.51L221.967 42.1818L222.028 38.9153V29.8052H217.698V54.082H222.673L229.416 36.4665C229.02 38.372 228.824 41.184 228.824 44.9037V54.082H233.158Z" fill="black"/>
<path d="M241.251 41.6044L235.634 29.8052H240.984L244.107 37.6991L247.401 29.8052H252.571L246.601 41.6044L252.785 54.082H247.631L244.107 45.1344L240.444 54.082H235.404L241.251 41.6044Z" fill="black"/>
<path d="M1.85803 92.969V68.6919H17.1365V92.969H12.5423V72.3502H6.45213V92.969H1.85803Z" fill="black"/>
<path d="M20.7167 92.969V68.6919H29.4116C30.6835 68.6919 31.7988 69.0005 32.7564 69.6175C33.7146 70.2386 34.4711 71.1013 35.0257 72.2056C35.2778 72.7324 35.4793 73.2976 35.6192 73.9023C35.7596 74.5139 35.8324 75.1349 35.8324 75.7847C35.8324 77.1307 35.5691 78.351 35.0367 79.4497C34.5045 80.5528 33.7426 81.433 32.745 82.0939C31.748 82.7545 30.6162 83.0847 29.3501 83.0847H25.3108V92.969H20.7167ZM27.6414 72.2888H25.3108V79.4948H27.6414C29.9387 79.4948 31.087 78.2785 31.087 75.8475C31.087 73.4709 29.9387 72.2888 27.6414 72.2888Z" fill="black"/>
<path d="M38.4264 76.5535V85.2376C38.4264 90.6883 41.0653 93.4114 46.3373 93.4114C47.9682 93.4114 49.3517 93.1589 50.4832 92.6498C51.615 92.1393 52.5057 91.2711 53.1555 90.044C53.8113 88.8223 54.136 87.2212 54.136 85.2376V76.5535C54.136 74.5522 53.8168 72.9403 53.1837 71.7131C52.5449 70.486 51.6487 69.6055 50.4832 69.0622C49.318 68.5188 47.9343 68.25 46.3373 68.25C45.5304 68.25 44.7853 68.3169 44.1074 68.4466C43.4296 68.5749 42.7852 68.7879 42.1858 69.0677C41.0147 69.6178 40.096 70.5132 39.4291 71.7637C38.7625 73.0072 38.4264 74.6098 38.4264 76.5535ZM43.1381 85.8138V76.032C43.1381 73.3156 44.2028 71.9589 46.3373 71.9589C47.3122 71.9589 48.0685 72.3231 48.6121 73.0576C49.1556 73.7906 49.4242 74.8049 49.4242 76.0934V85.8138C49.4242 87.0586 49.1556 88.0209 48.6176 88.694C48.0852 89.3669 47.3235 89.7027 46.3373 89.7027C44.2028 89.7027 43.1381 88.4086 43.1381 85.8138Z" fill="black"/>
<path d="M70.5799 92.969H65.9691V89.966H64.6246C63.2235 89.966 61.9239 89.6464 60.7251 89.0023C59.5259 88.3635 58.5565 87.3545 57.8116 85.9651C57.0666 84.5808 56.6965 82.8445 56.6965 80.7547C56.6965 79.7187 56.7804 78.7823 56.9544 77.9591C57.1334 77.1307 57.4139 76.3511 57.8116 75.6168C58.5622 74.2162 59.5429 73.1748 60.7472 72.4854C61.9519 71.796 63.2403 71.4493 64.6246 71.4493H65.9691V68.6919H70.5799V71.4493H71.9079C73.2748 71.4493 74.5637 71.7907 75.7734 72.4744C76.9837 73.1585 77.9641 74.2054 78.7206 75.6168C79.4769 77.0297 79.8522 78.744 79.8522 80.7547C79.8522 82.8226 79.4881 84.5482 78.7541 85.9267C78.0202 87.3041 77.0398 88.3237 75.8185 88.979C74.5914 89.6356 73.2861 89.966 71.9079 89.966H70.5799V92.969ZM65.9691 75.0462H64.8818C63.8457 75.0462 62.9994 75.5732 62.3555 76.6202C61.711 77.6738 61.3861 79.0512 61.3861 80.7547C61.3861 82.5306 61.694 83.9093 62.2994 84.8949C62.9044 85.8764 63.7669 86.3691 64.8818 86.3691H65.9691V75.0462ZM71.6442 75.0462H70.5799V86.3691H71.6442C72.7537 86.3691 73.611 85.8872 74.2219 84.918C74.8378 83.9489 75.1403 82.5646 75.1403 80.7547C75.1403 79.0512 74.8325 77.6738 74.2104 76.6202C73.5828 75.5732 72.7315 75.0462 71.6442 75.0462Z" fill="black"/>
<path d="M82.7098 92.969V68.6919H95.6739V72.5974H87.3039V78.1162H94.9344V81.7743H87.3039V89.2601H95.6739V92.969H82.7098Z" fill="black"/>
<path d="M108.33 76.5876V76.0607C108.33 74.5522 108.123 73.489 107.709 72.8775C107.288 72.2672 106.588 71.9589 105.608 71.9589C104.622 71.9589 103.91 72.2672 103.473 72.8775C103.036 73.489 102.817 74.5522 102.817 76.0607V85.6009C102.817 87.1529 103.025 88.2408 103.445 88.8673C103.871 89.4898 104.577 89.8037 105.574 89.8037C106.526 89.8037 107.221 89.4788 107.663 88.84C108.106 88.2012 108.33 87.1202 108.33 85.6009V84.2849H112.958V85.4002C112.958 87.019 112.74 88.4197 112.303 89.5963C111.866 90.773 111.092 91.719 109.977 92.4369C108.868 93.1536 107.412 93.5126 105.608 93.5126C102.828 93.5126 100.879 92.7671 99.7695 91.2876C98.6602 89.8038 98.1056 87.8422 98.1056 85.4002V76.5876C98.1056 73.7633 98.7385 71.668 99.9992 70.3002C101.265 68.9339 103.153 68.25 105.669 68.25C107.204 68.25 108.515 68.5354 109.613 69.1128C110.706 69.6846 111.535 70.5254 112.106 71.6229C112.672 72.7204 112.958 73.9983 112.958 75.4546V76.5876H108.33Z" fill="black"/>
<path d="M125.715 76.5876V76.0607C125.715 74.5522 125.508 73.489 125.094 72.8775C124.673 72.2672 123.973 71.9589 122.992 71.9589C122.006 71.9589 121.294 72.2672 120.858 72.8775C120.421 73.489 120.202 74.5522 120.202 76.0607V85.6009C120.202 87.1529 120.41 88.2408 120.83 88.8673C121.256 89.4898 121.962 89.8037 122.959 89.8037C123.911 89.8037 124.606 89.4788 125.048 88.84C125.491 88.2012 125.715 87.1202 125.715 85.6009V84.2849H130.343V85.4002C130.343 87.019 130.125 88.4197 129.687 89.5963C129.25 90.773 128.477 91.719 127.362 92.4369C126.253 93.1536 124.797 93.5126 122.992 93.5126C120.213 93.5126 118.264 92.7671 117.154 91.2876C116.045 89.8038 115.49 87.8422 115.49 85.4002V76.5876C115.49 73.7633 116.123 71.668 117.384 70.3002C118.65 68.9339 120.538 68.25 123.054 68.25C124.589 68.25 125.9 68.5354 126.998 69.1128C128.091 69.6846 128.92 70.5254 129.492 71.6229C130.057 72.7204 130.343 73.9983 130.343 75.4546V76.5876H125.715Z" fill="black"/>
<path d="M148.816 92.969V68.6919H143.84L137.078 86.3349C137.184 85.8476 137.296 85.1256 137.403 84.1727L137.571 82.3968L137.621 81.0688L137.683 77.8021V68.6919H133.353V92.969H138.327L145.073 75.3533C144.675 77.259 144.479 80.0722 144.479 83.7919V92.969H148.816Z" fill="black"/>
<path d="M151.963 76.5535V85.2376C151.963 90.6883 154.603 93.4114 159.875 93.4114C161.505 93.4114 162.889 93.1589 164.021 92.6498C165.152 92.1393 166.043 91.2711 166.693 90.044C167.348 88.8223 167.673 87.2212 167.673 85.2376V76.5535C167.673 74.5522 167.354 72.9403 166.721 71.7131C166.082 70.486 165.186 69.6055 164.021 69.0622C162.856 68.5188 161.472 68.25 159.875 68.25C159.068 68.25 158.323 68.3169 157.645 68.4466C156.968 68.5749 156.323 68.7879 155.724 69.0677C154.553 69.6178 153.634 70.5132 152.967 71.7637C152.301 73.0072 151.963 74.6098 151.963 76.5535ZM156.675 85.8138V76.032C156.675 73.3156 157.74 71.9589 159.875 71.9589C160.85 71.9589 161.606 72.3231 162.149 73.0576C162.692 73.7906 162.961 74.8049 162.961 76.0934V85.8138C162.961 87.0586 162.692 88.0209 162.155 88.694C161.622 89.3669 160.861 89.7027 159.875 89.7027C157.74 89.7027 156.675 88.4086 156.675 85.8138Z" fill="black"/>
<path d="M170.873 92.969V68.6919H175.466V78.1162H181.557V68.6919H186.152V92.969H181.557V81.7743H175.466V92.969H170.873Z" fill="black"/>
<path d="M188.168 92.969L194.326 68.6919H200.51L205.894 92.969H200.926L199.774 86.649H194.571L193.127 92.969H188.168ZM195.132 83.0521H199.2L197.361 71.7456L195.132 83.0521Z" fill="black"/>
<path d="M210.064 68.6919H224.115V92.969H219.505V72.3502H214.598V81.7076C214.598 84.4868 214.428 86.7267 214.092 88.4302C213.761 90.1339 213.213 91.3883 212.448 92.1949C211.693 93.0073 210.673 93.4111 209.391 93.4111C208.265 93.4111 207.335 93.3102 206.6 93.0973V89.7025C206.947 89.8145 207.439 89.8649 208.081 89.8649C208.483 89.8649 208.797 89.7747 209.019 89.585C209.246 89.3994 209.439 88.9968 209.605 88.3743L209.833 87.1089C209.866 86.8564 209.894 86.6039 209.915 86.3459C209.939 86.0879 209.951 85.8203 209.951 85.5337L210.027 82.6262L210.064 80.3288V68.6919Z" fill="black"/>
<path d="M227.415 76.5535V85.2376C227.415 90.6883 230.054 93.4114 235.324 93.4114C236.956 93.4114 238.341 93.1589 239.469 92.6498C240.603 92.1393 241.494 91.2711 242.143 90.044C242.8 88.8223 243.122 87.2212 243.122 85.2376V76.5535C243.122 74.5522 242.804 72.9403 242.171 71.7131C241.535 70.486 240.638 69.6055 239.469 69.0622C238.304 68.5188 236.921 68.25 235.324 68.25C234.517 68.25 233.774 68.3169 233.095 68.4466C232.416 68.5749 231.771 68.7879 231.174 69.0677C230.001 69.6178 229.085 70.5132 228.416 71.7637C227.751 73.0072 227.415 74.6098 227.415 76.5535ZM232.126 85.8138V76.032C232.126 73.3156 233.191 71.9589 235.324 71.9589C236.299 71.9589 237.054 72.3231 237.599 73.0576C238.143 73.7906 238.412 74.8049 238.412 76.0934V85.8138C238.412 87.0586 238.143 88.0209 237.603 88.694C237.074 89.3669 236.312 89.7027 235.324 89.7027C233.191 89.7027 232.126 88.4086 232.126 85.8138Z" fill="black"/>
<path d="M250.917 72.155V78.5421H253.348C255.253 78.5421 256.2 77.4376 256.2 75.2414C256.2 74.1889 255.982 73.4151 255.543 72.9113C255.107 72.4077 254.397 72.155 253.41 72.155H250.917ZM250.917 89.5059H253.871C254.748 89.5059 255.394 89.2097 255.81 88.6213C256.22 88.0276 256.43 87.0638 256.43 85.7301C256.43 83.2488 255.58 82.0052 253.871 82.0052H250.917V89.5059ZM255.596 92.969H246.324V68.6919H254.821C256.171 68.6919 257.293 68.9555 258.188 69.4878C259.084 70.0201 259.745 70.7313 260.169 71.6282C260.587 72.5305 260.797 73.5215 260.797 74.6203C260.797 75.3929 260.665 76.1722 260.397 76.9504C260.128 77.7244 259.745 78.3795 259.249 78.9121C258.749 79.4389 258.184 79.7746 257.552 79.9207C258.768 80.4134 259.669 81.1192 260.257 82.0433C260.85 82.9675 261.14 84.211 261.14 85.763C261.14 87.1977 260.938 88.4479 260.538 89.5114C260.132 90.5816 259.506 91.4223 258.664 92.0381C257.825 92.6606 256.799 92.969 255.596 92.969Z" fill="black"/>
<path d="M260.002 121.919H263V125.133H260.002V121.919ZM260.002 114.569V107.114H263V114.569L262.576 120.442H260.599L260.002 114.569ZM241.009 107.114V125.133H244.223V108.831L247.64 125.133H250.087L253.487 108.805L253.51 125.133H256.724V107.114H251.256L248.865 118.82L246.467 107.114H241.009ZM228.049 125.133V107.114H237.674V110.012H231.461V114.108H237.125V116.823H231.461V122.38H237.674V125.133H228.049ZM212.895 125.133V107.114H216.307V114.108H220.827V107.114H224.239V125.133H220.827V116.823H216.307V125.133H212.895ZM199.935 125.133V107.114H209.56V110.012H203.345V114.108H209.011V116.823H203.345V122.38H209.56V125.133H199.935ZM180.492 107.114V125.133H183.707V108.831L187.121 125.133H189.566L192.969 108.805L192.993 125.133H196.208V107.114H190.738L188.348 118.82L185.948 107.114H180.492ZM167.531 125.133V107.114H177.155V110.012H170.941V114.108H176.605V116.823H170.941V122.38H177.155V125.133H167.531ZM152.998 125.133V107.114H159.452C160.396 107.114 161.224 107.342 161.935 107.8C162.646 108.26 163.207 108.902 163.619 109.721C163.806 110.111 163.956 110.532 164.06 110.981C164.164 111.434 164.219 111.895 164.219 112.379C164.219 113.376 164.023 114.283 163.627 115.098C163.233 115.917 162.667 116.571 161.927 117.061C161.187 117.552 160.346 117.796 159.407 117.796H156.408V125.133H152.998ZM158.139 109.784H156.408V115.132H158.139C159.844 115.132 160.695 114.228 160.695 112.424C160.695 110.66 159.844 109.784 158.139 109.784ZM142.071 109.683V114.423H143.876C145.29 114.423 145.993 113.604 145.993 111.975C145.993 111.192 145.83 110.619 145.505 110.245C145.182 109.87 144.654 109.683 143.922 109.683H142.071ZM142.071 122.563H144.262C144.916 122.563 145.393 122.342 145.701 121.906C146.009 121.464 146.163 120.75 146.163 119.759C146.163 117.918 145.531 116.994 144.262 116.994H142.071V122.563ZM145.544 125.133H138.661V107.114H144.969C145.971 107.114 146.804 107.309 147.468 107.703C148.134 108.099 148.625 108.628 148.937 109.292C149.248 109.962 149.407 110.698 149.407 111.513C149.407 112.088 149.307 112.665 149.108 113.243C148.907 113.817 148.625 114.303 148.255 114.699C147.885 115.089 147.464 115.339 146.995 115.447C147.897 115.813 148.567 116.337 149.004 117.024C149.443 117.709 149.661 118.633 149.661 119.785C149.661 120.85 149.51 121.777 149.212 122.567C148.911 123.362 148.446 123.985 147.822 124.443C147.198 124.904 146.438 125.133 145.544 125.133ZM114.454 112.948V119.393C114.454 123.441 116.413 125.461 120.326 125.461C121.536 125.461 122.563 125.274 123.404 124.896C124.244 124.518 124.905 123.873 125.388 122.962C125.874 122.055 126.115 120.866 126.115 119.393V112.948C126.115 111.463 125.878 110.266 125.409 109.355C124.934 108.443 124.269 107.791 123.404 107.388C122.539 106.984 121.511 106.785 120.326 106.785C119.728 106.785 119.174 106.835 118.671 106.929C118.168 107.026 117.69 107.183 117.245 107.392C116.375 107.8 115.693 108.465 115.199 109.392C114.704 110.316 114.454 111.505 114.454 112.948ZM117.952 119.822V112.561C117.952 110.544 118.742 109.538 120.326 109.538C121.05 109.538 121.612 109.808 122.015 110.353C122.418 110.898 122.618 111.651 122.618 112.607V119.822C122.618 120.746 122.418 121.461 122.019 121.96C121.624 122.459 121.058 122.708 120.326 122.708C118.742 122.708 117.952 121.748 117.952 119.822ZM99.5096 125.133V107.114H102.92V114.108H107.44V107.114H110.85V125.133H107.44V116.823H102.92V125.133H99.5096ZM86.5485 125.133V107.114H96.1719V110.012H89.959V114.108H95.623V116.823H89.959V122.38H96.1719V125.133H86.5485ZM72.0158 125.133V107.114H78.47C79.4141 107.114 80.2416 107.342 80.953 107.8C81.6641 108.26 82.2253 108.902 82.6371 109.721C82.8241 110.111 82.9741 110.532 83.0779 110.981C83.1819 111.434 83.2359 111.895 83.2359 112.379C83.2359 113.376 83.0407 114.283 82.6455 115.098C82.2504 115.917 81.6846 116.571 80.9446 117.061C80.2042 117.552 79.3639 117.796 78.4243 117.796H75.4258V125.133H72.0158ZM77.156 109.784H75.4258V115.132H77.156C78.861 115.132 79.7135 114.228 79.7135 112.424C79.7135 110.66 78.861 109.784 77.156 109.784ZM59.0548 125.133V107.114H68.6779V110.012H62.4648V114.108H68.1293V116.823H62.4648V122.38H68.6779V125.133H59.0548ZM48.1275 109.683V114.423H49.9323C51.3464 114.423 52.0493 113.604 52.0493 111.975C52.0493 111.192 51.8869 110.619 51.5626 110.245C51.2381 109.87 50.71 109.683 49.978 109.683H48.1275ZM48.1275 122.563H50.3193C50.972 122.563 51.4504 122.342 51.7578 121.906C52.066 121.464 52.2196 120.75 52.2196 119.759C52.2196 117.918 51.5873 116.994 50.3193 116.994H48.1275V122.563ZM51.6002 125.133H44.7174V107.114H51.0262C52.0285 107.114 52.86 107.309 53.5253 107.703C54.1909 108.099 54.6816 108.628 54.9937 109.292C55.3053 109.962 55.4634 110.698 55.4634 111.513C55.4634 112.088 55.3637 112.665 55.164 113.243C54.9643 113.817 54.6816 114.303 54.3116 114.699C53.9412 115.089 53.5215 115.339 53.0515 115.447C53.9537 115.813 54.6233 116.337 55.0602 117.024C55.5009 117.709 55.7171 118.633 55.7171 119.785C55.7171 120.85 55.5672 121.777 55.2682 122.567C54.9688 123.362 54.5031 123.985 53.879 124.443C53.2553 124.904 52.4941 125.133 51.6002 125.133ZM29.5022 112.948V119.393C29.5022 123.441 31.4613 125.461 35.3745 125.461C36.5848 125.461 37.612 125.274 38.4521 124.896C39.292 124.518 39.9535 123.873 40.4358 122.962C40.9223 122.055 41.1636 120.866 41.1636 119.393V112.948C41.1636 111.463 40.9266 110.266 40.4564 109.355C39.9824 108.443 39.3171 107.791 38.4521 107.388C37.5871 106.984 36.5597 106.785 35.3745 106.785C34.7757 106.785 34.2225 106.835 33.7192 106.929C33.2162 107.026 32.7381 107.183 32.2933 107.392C31.4237 107.8 30.7417 108.465 30.2467 109.392C29.7519 110.316 29.5022 111.505 29.5022 112.948ZM32.9998 119.822V112.561C32.9998 110.544 33.7901 109.538 35.3745 109.538C36.0982 109.538 36.6597 109.808 37.0629 110.353C37.4665 110.898 37.666 111.651 37.666 112.607V119.822C37.666 120.746 37.4665 121.461 37.0672 121.96C36.6721 122.459 36.1063 122.708 35.3745 122.708C33.7901 122.708 32.9998 121.748 32.9998 119.822ZM15.1775 125.133V107.114H21.6319C22.5759 107.114 23.4036 107.342 24.1145 107.8C24.8254 108.26 25.3873 108.902 25.7989 109.721C25.9859 110.111 26.1358 110.532 26.2396 110.981C26.3437 111.434 26.3979 111.895 26.3979 112.379C26.3979 113.376 26.2021 114.283 25.8072 115.098C25.4122 115.917 24.8464 116.571 24.1064 117.061C23.366 117.552 22.5259 117.796 21.5861 117.796H18.5878V125.133H15.1775ZM20.3178 109.784H18.5878V115.132H20.3178C22.0227 115.132 22.8753 114.228 22.8753 112.424C22.8753 110.66 22.0227 109.784 20.3178 109.784ZM0 125.133V107.114H11.3407V125.133H7.9309V109.829H3.41018V125.133H0Z" fill="black"/>
</svg>
