<svg width="265" height="128" viewBox="0 0 265 128" fill="none" xmlns="http://www.w3.org/2000/svg">
<path fill-rule="evenodd" clip-rule="evenodd" d="M189.018 24.8407C189.155 24.8696 189.286 24.9258 189.417 25.0053C189.544 25.0839 189.691 25.1016 189.817 25.168C190.35 25.4496 190.787 25.9678 191.173 26.617C191.558 27.2661 191.692 27.9377 191.567 28.6309C191.493 29.0275 191.402 29.4446 191.288 29.8824C191.173 30.3202 190.962 30.7523 190.777 31.2378C190.157 32.8438 189.348 34.3002 188.23 35.549C181.98 42.5223 147.114 30.6981 137.707 44.8786C137.086 45.814 136.032 41.3007 135.229 39.6628C128.72 26.385 174.457 22.8501 184.936 24.1915C186.688 24.416 188.049 24.6311 189.018 24.8407Z" fill="black"/>
<path fill-rule="evenodd" clip-rule="evenodd" d="M99.2566 67.8634C103.778 74.1576 98.0151 87.225 98.7246 98.3477C98.7302 98.4487 98.7424 98.575 98.777 98.7265C98.8125 98.8781 98.8658 98.9538 98.9359 98.9538C99.2874 98.9538 99.2537 98.2467 99.6052 96.8342C101.255 90.2079 107.969 69.7454 114.025 74.8386C115.603 76.1659 119.251 106.473 124.026 106.083C129.614 105.626 135.529 90.2164 137.252 94.1263C138.765 97.5564 138.491 98.7153 138.488 101.67C136.515 108.714 124.627 119.379 118.03 112.808C115.522 110.41 113.876 104.934 110.901 93.7306C110.59 92.5614 109.71 91.5465 108.871 92.3547C104.233 96.8352 104.78 116.952 99.6006 115.058C98.6321 114.706 93.7541 114.481 93.0596 111.899C90.8543 103.7 92.5463 78.8121 93.0586 69.6827C93.3755 64.0067 95.8613 63.1368 99.2566 67.8634Z" fill="black"/>
<path fill-rule="evenodd" clip-rule="evenodd" d="M90.1279 51.8608C90.1737 52.3734 90.1653 52.8813 90.1046 53.3827C89.911 54.9869 89.2987 56.2422 88.2695 57.1504C87.2393 58.0568 86.182 58.6947 85.078 58.9454C84.6517 59.0427 84.2142 59.0586 83.7832 59.1147C83.3513 59.1699 82.9606 59.1793 82.6119 59.1419C82.3314 59.1129 82.022 59.0296 81.6855 58.8931C81.3471 58.7556 80.9956 58.6517 80.6721 58.4805C79.7943 58.0166 79.0511 57.2421 78.3902 56.259C77.7302 55.275 77.4601 54.2816 77.5806 53.2779C77.6405 52.7765 77.7396 52.2537 77.8761 51.7102C78.0125 51.1658 78.1874 50.5999 78.3986 50.0125C82.3801 39.0104 89.4249 43.7603 90.1279 51.8608Z" fill="black"/>
<path fill-rule="evenodd" clip-rule="evenodd" d="M202.302 6.16161C207.207 20.3608 217.15 53.265 223.983 62.3757C226.294 61.4918 228.896 59.4489 232.128 56.2452C235.365 53.0424 238.715 49.6179 242.182 45.9727C242.258 45.8624 242.355 45.752 242.469 45.6416C242.584 45.5312 242.719 45.4218 242.873 45.3105C246.954 40.8926 250.865 36.8602 254.598 33.2159C258.335 29.5707 261.242 27.7485 263.321 27.7485C263.784 27.7485 264.13 28.1348 264.361 28.9084C264.768 30.2694 264.966 31.4162 265 32.4255V33.0428C264.892 36.1165 263.176 37.9022 261.339 40.8664C260.51 42.205 258.579 42.002 257.575 43.2311C249.772 52.787 236.949 63.1137 229.962 71.1702C230.982 81.12 251.559 109.823 249.723 111.747C235.696 126.44 228.477 82.5895 221.272 82.5895C220.114 82.5895 219.314 83.2845 218.382 84.1637C207.959 94.0106 195.762 112.042 189.053 124.46C188.05 126.315 186.375 127.029 184.604 127.029C184.218 127.029 183.834 126.973 183.449 126.863C183.064 126.752 182.629 126.612 182.18 126.366C181.012 125.73 179.979 124.838 179.06 123.549C174.541 117.219 217.66 74.7303 215.549 69.7288C209.178 54.6316 189.97 10.6421 192.273 7.70033C193.69 5.89129 197.515 -7.69431 202.302 6.16161Z" fill="black"/>
<path fill-rule="evenodd" clip-rule="evenodd" d="M142.143 44.0542C142.284 44.0542 142.547 44.2572 142.936 44.6603C143.323 45.0635 143.728 45.519 144.15 46.0232C144.29 46.2252 144.431 46.4273 144.571 46.6293C144.713 46.8314 144.853 47.0334 144.993 47.2336C145.346 47.7387 145.645 48.2186 145.891 48.6732C146.138 49.1268 146.261 49.5057 146.261 49.8087C146.261 50.717 146.121 51.6505 145.838 52.6093C145.558 53.5671 145.276 54.8046 144.993 56.319C144.923 56.6221 144.853 56.9495 144.783 57.3031C144.713 57.6557 144.643 58.0345 144.571 58.4386C154.728 61.4786 186.375 53.9459 187.637 55.0319C189.808 56.899 186.541 61.6872 185.323 63.4345C184.97 63.9396 184.714 64.5448 184.265 64.9489C179.673 69.1039 154.318 70.2002 145.701 71.1206C145.148 71.1805 144.497 66.9291 143.873 67.6597C143.656 67.916 143.941 71.608 143.773 72.0644C144.162 80.7458 145.375 88.7574 149.638 94.2463C152.736 98.2329 157.909 100.227 165.158 100.227C169.31 100.227 172.811 99.7473 175.662 98.7885C178.512 97.8288 180.958 96.7943 182.999 95.684C184.97 94.5746 186.658 93.54 188.067 92.5803C189.473 91.6216 190.778 91.1417 191.974 91.1417C192.466 91.1417 192.886 91.5196 193.239 92.2782C193.591 93.0349 193.873 93.8674 194.083 94.7766C194.083 94.9777 194.103 95.2303 194.138 95.5334C194.172 95.8355 194.19 96.088 194.19 96.2901C194.19 100.631 192.307 104.164 188.543 106.889C184.776 109.613 180.606 111.531 176.032 112.642C174.27 113.147 172.512 113.499 170.753 113.701C168.993 113.903 167.339 114.005 165.791 114.005C154.39 114.005 146.349 109.993 141.669 101.968C136.987 93.9441 134.649 82.6128 134.649 67.9777C134.649 62.8293 135.14 58.3881 136.126 54.654C137.111 50.919 138.167 48.1428 139.293 46.3263C139.856 45.62 140.366 45.0635 140.824 44.6603C141.281 44.2572 141.72 44.0542 142.143 44.0542Z" fill="black"/>
<path fill-rule="evenodd" clip-rule="evenodd" d="M87.69 69.2026C85.9933 75.8382 83.9581 102.891 85.4931 108.872C86.7785 113.884 76.7712 122.035 76.6263 107.584C76.4917 94.2486 78.3819 79.4142 77.9397 76.9551C77.6303 75.2415 74.8202 79.3703 74.0863 77.8428C72.2887 74.1087 75.2567 71.1678 80.3011 65.2674C82.7756 62.3752 89.4886 62.1741 87.69 69.2026Z" fill="black"/>
<path fill-rule="evenodd" clip-rule="evenodd" d="M33.2642 26.7325C31.9264 26.7325 30.7654 28.1216 29.7791 30.8969C28.6349 34.1221 18.0891 66.176 23.455 62.3933C40.0127 50.7262 36.838 58.083 35.0058 28.55C34.9272 27.2928 34.1092 26.7325 33.2642 26.7325ZM29.9913 11.5923C30.484 11.5923 30.9757 11.7186 31.4684 11.9711C31.9619 12.2237 32.4546 12.5015 32.9463 12.8036C33.2978 13.0057 33.6502 13.2068 34.0027 13.4088C34.3551 13.6118 34.7066 13.7624 35.0581 13.8643C35.2703 13.9644 35.4619 14.0402 35.6386 14.0916C35.8144 14.1403 35.9733 14.1665 36.1145 14.1665C36.2547 14.1665 36.4127 14.1665 36.5894 14.1665C36.7651 14.1665 36.9586 14.1665 37.1699 14.1665C37.4513 14.1665 37.7149 14.1665 37.9617 14.1665C38.2075 14.1665 38.4712 14.115 38.7535 14.0149C39.0349 14.0149 39.2994 14.0149 39.5453 14.0149C39.7911 14.0149 40.0202 14.0149 40.2314 14.0149C40.7232 14.0149 41.1466 14.0655 41.4972 14.1665C41.8496 14.2666 42.1665 14.4695 42.4479 14.7717C42.8705 15.2768 43.1173 15.983 43.1874 16.8913C43.8511 25.4828 44.6279 34.1857 45.0869 42.7819C45.158 44.2963 45.2459 45.6339 45.3515 46.7947C45.4571 47.9546 45.6862 48.788 46.0377 49.2922C46.3892 49.6963 46.7762 50.0246 47.1987 50.2763C47.6213 50.5288 48.0438 50.7056 48.4654 50.8066C48.5355 50.8066 48.5879 50.8066 48.6234 50.8066C48.6589 50.8066 48.7113 50.8066 48.7823 50.8066C49.6265 51.1097 50.3837 51.5381 51.053 52.0937C51.7214 52.6493 52.0552 53.9869 52.0552 56.1065C52.0552 57.5199 52.2085 60.0698 50.8418 60.0426C46.3172 59.9519 47.5493 77.6317 55.1167 102.285C55.2925 102.858 55.0457 103.674 54.9055 104.632C54.7652 105.591 54.553 106.575 54.2726 107.584C53.85 109.4 53.1274 111.931 51.9495 113.337C51.8093 113.539 51.6681 113.691 51.5279 113.792C51.3868 113.892 51.2465 113.944 51.1044 113.944C43.7184 113.944 38.4534 71.3973 38.1954 67.3022C37.9196 62.9377 25.3434 70.1252 16.7943 80.378C15.394 82.057 10.7376 100.849 11.6752 108.621C13.0793 120.275 1.51642 126.075 0.390885 122.645C-1.57787 116.647 4.50133 94.5052 5.07719 88.1286C5.21741 86.5647 5.28752 85.5292 5.28752 85.0241C5.28752 80.4285 0.150635 77.888 3.72262 72.4805C5.94938 69.1094 11.0124 70.2449 12.8886 62.8441C16.139 50.0125 17.8077 36.4128 21.4928 24.0077C22.3023 21.2829 23.1633 19.0623 24.0785 17.3449C25.2751 14.9232 26.4362 13.3583 27.5636 12.6521C28.6891 11.9459 29.4987 11.5923 29.9913 11.5923Z" fill="black"/>
<path fill-rule="evenodd" clip-rule="evenodd" d="M67.0319 10.6831C69.0736 10.6831 70.4282 11.4913 71.0956 13.1067C71.765 14.7202 72.1006 16.8408 72.1006 19.4655C72.1006 20.8788 72.0295 22.3923 71.8884 24.0077C71.7482 25.6231 71.5715 27.2891 71.3611 29.0036C71.3611 29.4077 71.3256 29.7866 71.2546 30.1401C71.1845 30.4928 71.1489 30.8716 71.1489 31.2748C71.0788 31.6789 71.0265 32.0577 70.9919 32.4113C70.9554 32.7639 70.9386 33.0922 70.9386 33.3944C70.8685 34.3026 70.4974 38.7691 69.8299 46.7948C69.1605 54.8195 68.4744 63.7272 67.7705 73.5179C67.7003 74.023 67.6471 74.5019 67.6125 74.9565C67.577 75.4102 67.5601 75.8395 67.5601 76.2436C66.7861 86.1344 65.9345 95.305 65.4483 103.799C65.0174 111.325 70.961 118.108 60.4676 125.804C59.5243 126.496 58.324 124.475 57.6509 124.097C55.1755 122.707 62.3868 32.0577 62.3868 19.1615C62.3868 16.6387 62.6691 14.5949 63.2319 13.0309C63.7946 11.467 65.0613 10.6831 67.0319 10.6831Z" fill="black"/>
</svg>
