<svg width="47" height="48" viewBox="0 0 47 48" fill="none" xmlns="http://www.w3.org/2000/svg">
<path fill-rule="evenodd" clip-rule="evenodd" d="M35.032 8.40557C31.4242 9.90429 33.6695 14.9073 37.0648 13.6429C40.2912 12.4439 38.6889 6.88504 35.032 8.40557ZM22.1811 15.8501C18.3498 16.5205 14.9872 20.1447 15.8102 24.9242C16.4642 28.6956 20.1865 32.0582 24.8952 31.2243C28.6556 30.554 32.0019 26.8753 31.1898 22.1502C30.5413 18.3843 26.8135 15.0436 22.1811 15.8501ZM22.4809 11.5229C16.0718 12.1824 10.8126 17.4906 11.4884 24.728C12.0715 30.9682 17.6631 36.1946 24.6499 35.5625C30.8683 34.9957 36.1928 29.4095 35.5061 22.3464C34.9121 16.1989 29.3587 10.8144 22.4809 11.5229ZM16.099 4.36719C13.0743 4.51978 10.3112 4.54158 8.12036 6.04576C6.27284 7.31559 5.01936 9.19035 4.58337 12.1388C4.10923 15.3651 4.19098 27.2731 4.32723 30.9736C4.43077 33.9166 4.57247 36.8377 6.0167 38.9142C7.29743 40.7562 9.15584 41.9933 12.1097 42.4511C15.2379 42.9307 27.3095 42.8381 30.9446 42.7073C36.3727 42.5165 41.3757 41.868 42.4221 34.9357C42.8363 32.2108 42.7436 28.4939 42.7491 25.6436C42.7491 21.2946 43.3377 11.5393 40.9997 8.15487C39.7298 6.31825 37.8714 5.05933 34.9121 4.61788C31.8656 4.16009 19.527 4.19279 16.1154 4.36719H16.099ZM15.6521 0.121709C11.7337 0.361505 9.0632 0.399654 6.0821 2.29077C3.86398 3.69685 1.98922 5.76781 0.975533 8.91241C-0.0490492 12.0952 0.0163497 16.1608 0.0163497 19.7141C0.0163497 23.6108 -0.0490492 27.5456 0.0817486 31.4369C0.201647 35.121 0.550441 38.2547 2.25626 40.9633C6.1475 47.1544 12.8073 47.0291 19.6796 47.0182C23.5708 47.0182 27.5166 47.089 31.4024 46.9528C35.1628 46.822 38.0894 46.5386 40.9179 44.7783C47.1253 40.9034 46.9837 34.2054 46.9837 27.3549C46.9837 23.4637 47.049 19.5179 46.9183 15.6321C46.7057 9.09771 45.1579 3.27721 38.1276 1.01004C35.0266 0.012711 30.8029 0.0508604 27.3204 0.0508604C23.5381 0.0508604 19.3635 -0.101737 15.6521 0.121709Z" fill="black"/>
</svg>
