<svg width="53" height="55" viewBox="0 0 53 55" fill="none" xmlns="http://www.w3.org/2000/svg">
<path d="M3.58845 54.9986H2.74314C2.13751 54.7517 1.64238 54.403 1.39266 53.75C0.967854 52.6377 0.432541 51.6087 0.0751867 50.4477C-0.233372 49.4459 0.449763 48.1658 1.35822 47.7496C1.87487 47.5128 2.38292 47.4453 2.93689 47.2487C2.86226 46.6703 2.50778 46.191 2.46329 45.6141C2.36426 44.3382 3.07897 42.9361 4.16108 42.2486C4.64616 41.9401 5.27907 41.9559 5.80146 41.6932C5.70674 41.1149 5.35944 40.6269 5.32356 40.0543C5.24175 38.7698 5.96794 37.3433 7.0644 36.6946C7.5624 36.4004 8.09915 36.4104 8.66173 36.1793C8.52826 35.2795 7.79777 34.4213 8.28429 33.4769L10.2992 29.5547L8.18239 23.1366C7.76763 21.8766 7.83652 20.5261 8.44789 19.3435L9.97634 16.3871C10.2074 15.9393 10.7987 15.9967 11.0828 16.1862C11.4976 16.4632 11.5292 16.8894 11.3139 17.3027L9.92754 19.9779C9.50991 20.7844 9.40514 21.6972 9.69504 22.5755L11.8808 29.1987C11.987 29.5231 11.9698 29.8561 11.8176 30.1531L9.73092 34.1888C10.3279 35.3541 10.3064 37.138 9.10663 37.6375L7.72888 38.2115C7.31125 38.3852 6.88788 39.3568 6.95533 39.8017C7.03857 40.3499 7.26102 40.8422 7.2768 41.3445C7.30264 42.1482 6.94815 42.8772 6.24206 43.17L4.86861 43.7412C4.38783 43.9407 4.09793 44.885 4.05344 45.3644C4.3089 46.1982 4.63181 47.0047 4.21992 47.8127C3.88553 48.4672 3.24545 48.8905 2.46759 49.0556C2.14612 49.123 1.45868 49.4847 1.6309 49.997C2.00978 51.1236 2.50634 52.1842 3.00578 53.4084L6.62668 52.642L16.8622 32.8541C17.0086 32.5714 17.2095 32.3547 17.4879 32.2714L24.1944 30.2737C25.1215 29.9967 25.8076 29.3896 26.2481 28.5371L29.9996 21.2666C30.7718 19.7712 30.2623 17.7649 28.7453 16.964L19.9636 12.3199C19.866 13.2943 19.8804 14.1454 19.9937 15.0668C21.8035 14.8041 23.3635 15.6451 24.2389 17.1492C25.179 18.7637 24.9666 20.7313 23.7682 22.0718C22.5698 23.4122 20.5707 23.8643 18.8772 23.0505C17.4822 22.3789 16.6326 21.0112 16.5235 19.5703C16.4058 18.0045 17.1191 16.5651 18.4308 15.6724C18.2543 14.2846 18.2213 12.9887 18.4222 11.5406C17.597 10.9421 16.4833 10.7972 15.4084 11.1674C13.4523 11.842 13.6546 13.834 12.6773 13.8225C12.3716 13.8182 12.0329 13.623 11.8837 13.3517C11.7258 13.0633 11.8894 12.749 12.0257 12.4261C13.138 9.80404 16.1245 8.5698 18.7853 9.85714C20.5577 3.65726 26.373 -0.473122 32.7953 0.0435347C35.4662 0.258808 37.9762 1.26342 40.0529 2.93394C44.9482 6.87058 46.4996 13.6589 43.7499 19.3679L51.1094 24.3293C52.6077 25.3396 52.6794 27.4837 51.3964 28.6692C50.3358 29.5547 48.9609 29.6594 47.7281 28.9648V35.9827C47.7281 36.4951 47.3894 36.8338 46.9388 36.8079C46.4882 36.7821 46.2054 36.4664 46.2054 35.9799L46.2011 27.8554L34.5405 19.9377C30.4862 22.7348 32.0878 20.981 29.7413 25.2061C30.3197 25.3066 30.6799 25.3425 31.1951 25.354C31.6113 23.5012 33.3048 22.3617 35.1002 22.6788C36.8956 22.996 38.0408 24.5991 37.8213 26.4031C37.6261 28.0004 36.3732 29.2102 34.8261 29.3638C33.2919 29.5159 31.8051 28.5673 31.2855 27.0317L28.9922 26.7489L27.5584 29.4628C26.9542 30.6066 25.8965 31.4505 24.6609 31.8036L22.3517 32.4637L22.346 42.5285C22.346 43.2748 22.8181 43.8187 23.5673 43.8201L29.9322 43.8273V35.5565C29.9322 35.0484 30.225 34.6466 30.766 34.6466H37.9619C38.4039 34.648 38.7598 35.0083 38.7598 35.446L38.7627 43.833H44.9482C45.5926 43.8302 46.1007 43.2518 46.105 42.6447L46.1251 39.9538C46.1279 39.5103 46.5614 39.2678 46.9302 39.2707C47.266 39.2721 47.7167 39.5161 47.7167 39.9538V42.649C47.7167 44.2435 46.4293 45.4519 44.8277 45.4505L23.4639 45.4289C22.0101 45.4275 20.7544 44.1961 20.7515 42.7581L20.73 32.9531L18.2098 33.7453L8.07762 53.3338C7.39305 54.657 4.81264 54.4145 3.58702 55L3.58845 54.9986ZM33.0551 14.2702C34.0497 13.6345 35.2193 13.6445 36.1679 14.2803L42.3951 18.458C44.8794 13.0604 43.0079 6.71701 38.1054 3.5037C34.4372 1.14717 29.836 0.96634 26.0142 3.09755C23.1396 4.70062 21.073 7.39297 20.2391 10.6336L29.5031 15.5203C29.7858 15.6695 30.0054 15.8575 30.2953 16.0742L33.0537 14.2688L33.0551 14.2702ZM35.0686 18.349L48.8031 27.5928C49.4087 28.0004 50.1435 27.7966 50.4836 27.2685C50.8424 26.7116 50.7219 26.0027 50.1392 25.6109L35.2609 15.6107C34.872 15.3495 34.3582 15.3423 33.9894 15.5848L31.3516 17.3214C31.7161 18.0964 31.9041 18.8254 32.0203 19.675L34.0626 18.3289C34.3453 18.1423 34.7041 18.105 35.0701 18.3504L35.0686 18.349ZM22.9286 18.1165C22.4536 17.0817 21.4447 16.499 20.308 16.6641C20.7601 18.2844 21.4806 19.7482 22.5454 21.0112C23.2802 20.163 23.3735 19.0866 22.9286 18.1179V18.1165ZM21.0644 21.8106C20.1085 20.4615 19.3551 19.0823 18.8399 17.452C18.0204 18.2858 17.9242 19.4971 18.4093 20.4472C18.8944 21.3972 19.8847 21.9986 21.0644 21.812V21.8106ZM35.6269 24.6737C34.7271 23.8915 33.355 24.1829 32.8915 25.2966C33.8172 25.2205 34.7113 25.0196 35.6269 24.6737ZM33.0336 26.9656C33.4914 27.6488 34.2506 27.8971 34.9653 27.7047C35.5867 27.5368 36.1665 26.9384 36.1938 26.228C35.0959 26.5595 34.1114 26.7719 33.0336 26.9656ZM37.1553 43.8072L37.1496 36.2626L31.5511 36.2597L31.5453 43.8273L37.1553 43.8072Z" fill="white"/>
<path d="M6.31521 50.2154C6.0655 50.6976 5.58328 50.7722 5.23023 50.6143C4.82552 50.4349 4.63751 49.9498 4.87144 49.4978L13.2269 33.391C13.4508 32.9605 13.9345 32.8758 14.3033 33.0537C14.6334 33.213 14.8917 33.6795 14.6678 34.1115L6.31521 50.2154Z" fill="white"/>
</svg>
