<svg width="65" height="52" viewBox="0 0 65 52" fill="none" xmlns="http://www.w3.org/2000/svg">
<path d="M48.7417 12.37C51.2532 11.9239 53.836 11.7861 55.9849 12.3378C57.2201 12.6546 58.6975 13.2714 59.4517 14.5692L63.8403 22.118C64.2786 22.8719 64.4179 23.8205 64.3892 24.7274C64.3602 25.6412 64.1599 26.5681 63.8638 27.3163C62.182 31.5589 57.9838 35.669 54.5161 38.4315C48.8621 42.9354 42.5978 46.5397 35.7524 49.0995C33.6936 49.8694 31.1185 50.6646 28.5327 51.119C25.9573 51.5716 23.3188 51.695 21.1606 51.0741C19.9863 50.7361 18.609 50.115 17.896 48.8788L13.4409 41.1552C12.656 39.7934 12.8985 38.127 13.2856 36.8427C13.9249 34.7191 15.3423 32.5759 16.981 30.6464C18.625 28.7105 20.5207 26.9563 22.1567 25.6102C28.0114 20.795 34.6202 16.9838 41.728 14.33L42.4995 14.0507C44.3499 13.3984 46.5362 12.7617 48.7417 12.37ZM59.6704 20.3378C58.9106 22.173 57.6847 23.9727 56.2993 25.6141C54.6516 27.5663 52.7564 29.3233 51.0962 30.6893L51.0972 30.6903C45.6284 35.1924 39.5065 38.8118 32.9292 41.4374L31.6079 41.9491C27.8194 43.3717 22.6123 44.7601 18.3228 44.2177L20.1411 47.3671C20.4165 47.8444 20.9734 48.114 21.6685 48.4266C22.6061 48.6743 23.52 48.8033 24.439 48.7821L23.5708 47.2421L23.3228 46.8036L23.7642 46.5594L25.2583 45.7313L25.688 45.494L25.9331 45.9188L27.4458 48.5399C29.2074 48.2531 30.88 47.8457 32.5854 47.3065L31.436 45.2928L31.188 44.8583L31.6226 44.6112L33.1099 43.7635L33.5405 43.5184L33.7896 43.9462L35.2231 46.4042C36.8815 45.7533 38.397 45.1153 39.9048 44.3817L38.6714 42.2284L38.606 42.1132V41.6864L38.8569 41.5428L40.3403 40.6903L40.772 40.4432L41.022 40.8719L42.3472 43.1473L46.7349 40.6141L45.4282 38.33L45.1812 37.8973L45.6118 37.6483L47.0864 36.7958L47.5142 36.5487L47.7671 36.9745L49.0366 39.118C50.479 38.1109 51.7746 37.1485 53.1118 36.0712L51.6968 33.578L51.4497 33.1425L51.8853 32.8954L53.3677 32.0565L53.7974 31.8134L54.0454 32.2391L55.2163 34.245C56.5537 33.009 57.7318 31.7795 58.8521 30.4091L57.3384 27.7655L57.0894 27.33L57.5249 27.0819L59.0132 26.2362L59.4429 25.9921L59.6919 26.4198L60.5688 27.9247C61.0612 27.0841 61.4097 26.2404 61.6558 25.2899C61.6848 24.9455 61.7132 24.6209 61.6978 24.3094C61.6818 23.988 61.6208 23.7199 61.4956 23.5028L59.6704 20.3378ZM56.2231 15.2841C54.3569 14.4395 51.548 14.5689 48.6128 15.1669C45.7064 15.759 42.7909 16.7853 40.7886 17.6112C35.3118 19.8702 30.2203 22.8052 25.519 26.4022C22.2536 28.9 18.5836 32.3337 16.6265 35.8485C16.1211 36.7558 15.6947 37.8558 15.6685 38.83C15.6556 39.3099 15.7404 39.7384 15.9399 40.0985C16.1367 40.4535 16.4636 40.7757 16.9946 41.0204C18.7827 41.8443 21.4692 41.755 24.2837 41.2177C27.0702 40.6856 29.8708 39.7376 31.811 38.9618C37.6749 36.6162 43.1218 33.4896 48.1021 29.6151C51.2405 27.1737 54.7524 23.831 56.6284 20.4286C57.1325 19.5144 57.551 18.419 57.5698 17.453C57.579 16.9774 57.491 16.5533 57.2886 16.1971C57.0888 15.8458 56.7582 15.5262 56.2231 15.2841Z" fill="white" stroke="white"/>
<path d="M8.59106 0.964844C10.7715 0.307349 13.4189 0.417725 15.9915 0.861328C18.5742 1.30668 21.1347 2.09742 23.1692 2.84863C29.7502 5.28001 35.8133 8.73882 41.3879 13.0117L41.7864 13.3174L41.4788 13.7148L40.426 15.0732L40.1213 15.4668L39.7258 15.1641C34.9731 11.5195 29.8639 8.51203 24.3186 6.21289C22.2766 5.36606 19.3613 4.32783 16.4514 3.7207C13.5155 3.10817 10.6923 2.95905 8.76489 3.7793C7.72965 4.22021 7.2093 5.17444 7.37915 6.30957C7.56741 7.56744 8.08736 8.67667 8.79907 9.79785L9.11353 10.2793C12.4535 15.2337 18.5702 19.7851 23.762 22.876L24.1838 23.1279L23.9397 23.5547L23.0911 25.0381L22.8391 25.4785L22.4026 25.2207C18.8834 23.1446 15.6224 20.829 12.5471 18.1172L12.5403 18.1123C9.75037 15.569 6.80808 12.5602 5.26001 8.85645L3.59497 11.749L3.59692 11.751L3.40649 12.083C3.2756 12.3106 3.22499 12.5861 3.22388 12.918C3.22279 13.2503 3.2656 13.5574 3.29614 13.917C3.54924 14.8249 3.89275 15.6368 4.35864 16.4453L5.24243 14.9395L5.49146 14.5127L5.92114 14.7578L7.40161 15.6016L7.83618 15.8496L7.58911 16.2842L6.07251 18.9404C7.20662 20.3139 8.39023 21.5478 9.71313 22.7646L10.8811 20.7666L11.1301 20.3398L11.5598 20.584L13.0442 21.4297L13.4797 21.6777L13.2307 22.1133L11.8147 24.5859C13.6493 26.0853 15.5091 27.4073 17.552 28.7568L17.9612 29.0273L17.6985 29.4414L16.7854 30.8828L16.5159 31.3086L16.092 31.0361C12.6795 28.8406 9.49598 26.4281 6.59204 23.5508C5.1899 22.1619 3.22856 20.0159 1.91724 17.6807C0.618598 15.368 -0.128415 12.71 1.19946 10.4238L5.40747 3.18457C6.11284 1.97017 7.40781 1.32222 8.59106 0.964844Z" fill="white" stroke="white"/>
</svg>
