<svg width="76" height="51" viewBox="0 0 76 51" fill="none" xmlns="http://www.w3.org/2000/svg">
<path d="M75.4478 32.8691L75.4341 32.9092C74.8692 34.5384 73.593 35.7869 71.6968 35.7744L69.3579 35.7588V35.7578C68.4714 35.7528 67.8973 35.0046 67.9624 34.2158V34.2148C68.02 33.5318 68.6006 32.9445 69.3853 32.9375L71.8501 32.918C72.2534 32.9151 72.6156 32.553 72.6157 32.0791V3.96289C72.6157 3.45663 72.2681 3.08691 71.7583 3.08691H13.2876C12.7771 3.08692 12.4351 3.47486 12.4351 3.94141L12.4292 11.9707C12.4289 12.8519 11.6982 13.4349 10.9312 13.3926C10.2473 13.3546 9.59814 12.7899 9.59814 11.9697V3.93555L9.60303 3.74805C9.69979 1.8209 11.2513 0.253946 13.2622 0.253906L71.6577 0.25L72.0132 0.263672C73.756 0.40258 74.9114 1.56492 75.4351 3.1377L75.4478 3.17578V32.8691Z" fill="white" stroke="white" stroke-width="0.5"/>
<path d="M62.5273 15.2434C64.4739 15.3318 66.1034 16.7811 66.1035 18.8411V47.1086C66.1056 49.114 64.522 50.7483 62.4121 50.7483H62.1621V50.7463L4.04297 50.7502C2.89551 50.7502 1.94163 50.3241 1.27637 49.6086C0.612949 48.895 0.25 47.9082 0.25 46.8088V19.1292L0.253906 18.9358C0.340635 16.9481 1.72967 15.2435 3.89258 15.2434L62.3389 15.2395L62.5273 15.2434ZM4.04297 18.0745C3.72171 18.0745 3.4902 18.1675 3.34082 18.3118C3.19288 18.4549 3.09668 18.6763 3.09668 18.9915V47.095L3.10156 47.1917C3.12404 47.4097 3.22016 47.5759 3.35938 47.6936C3.52282 47.8318 3.76088 47.9153 4.04102 47.9153L62.3262 47.9094V47.9075H62.5762C62.7581 47.9075 62.9307 47.8082 63.0664 47.6399C63.2035 47.4696 63.2772 47.259 63.2773 47.0979V18.9895C63.2773 18.6799 63.1781 18.4563 63.0283 18.3108C62.8775 18.1643 62.6508 18.0736 62.3545 18.0745H4.04297Z" fill="white" stroke="white" stroke-width="0.5"/>
<path fill-rule="evenodd" clip-rule="evenodd" d="M47.873 32.9363H17.2705L19.7512 22.5262H29.6195C29.5435 22.6899 29.4811 22.8653 29.4402 23.0446L29.3428 23.4421H32.3633L32.4646 23.0368C32.5328 23.1498 32.6244 23.2434 32.7374 23.3213C32.9713 23.4831 33.2675 23.5259 33.5461 23.5259C34.0469 23.5259 34.462 23.3876 34.768 23.1089L34.6861 23.4421H37.7066L37.8197 22.9881C37.9151 23.1615 38.0535 23.2979 38.2328 23.3876C38.4354 23.485 38.6576 23.5259 38.8797 23.5259C39.1721 23.5259 39.4585 23.4675 39.7177 23.3213C39.9593 23.1869 40.1562 22.9998 40.3043 22.764C40.353 22.686 40.3939 22.6081 40.4329 22.5282H50.3577L47.8769 32.9382L47.873 32.9363Z" fill="black"/>
<path d="M40.6511 22.5262H50.3538L47.873 32.9363H17.2705L19.7512 22.5262H29.6779" stroke="#FEFEFE" stroke-width="0.5" stroke-miterlimit="121.89"/>
<path d="M22.4054 25.3675L22.0351 26.946H22.5574C22.8048 26.946 22.9958 26.8797 23.142 26.7414C23.2862 26.6069 23.3914 26.3847 23.4655 26.0768C23.5785 25.6014 23.4011 25.3656 22.9315 25.3656H22.4054V25.3675ZM21.7116 28.314L21.2556 30.2412H21.6571C21.9766 30.2412 22.2183 30.1672 22.3839 30.0191C22.5476 29.8729 22.6704 29.6274 22.7522 29.2825C22.8302 28.9512 22.8243 28.7076 22.7347 28.5498C22.6509 28.3919 22.4541 28.314 22.1501 28.314H21.7097H21.7116ZM21.696 31.6034H19.2095L21.0042 24.0015H23.8552C24.1553 24.0015 24.432 24.0677 24.6814 24.2022C24.9309 24.3366 25.1121 24.5471 25.2212 24.8316C25.3304 25.1142 25.3343 25.4727 25.229 25.9073C25.1199 26.373 24.925 26.7413 24.6483 27.0181C24.3677 27.2948 24.1007 27.4585 23.8416 27.515C24.167 27.667 24.3891 27.8852 24.5022 28.1717C24.6152 28.4543 24.6113 28.8499 24.4905 29.3604C24.3229 30.0736 24.0014 30.6271 23.5278 31.0168C23.0543 31.4066 22.4443 31.6034 21.696 31.6034Z" fill="#FEFEFE"/>
<path d="M25.9911 25.9716C26.0865 25.5663 26.26 25.2038 26.5075 24.8784C26.755 24.5568 27.0843 24.2996 27.4916 24.1164C27.8989 23.9294 28.3743 23.8378 28.9161 23.8378C29.4578 23.8378 29.8768 23.9294 30.1944 24.1164C30.5121 24.2996 30.7167 24.5568 30.8102 24.8784C30.9057 25.2038 30.9038 25.5721 30.8083 25.9794L30.0015 29.3916C29.906 29.7891 29.7794 30.1302 29.6196 30.4205C29.4559 30.7148 29.2513 30.9623 28.9979 31.163C28.503 31.5683 27.8482 31.7729 27.0317 31.7729C25.424 31.7729 24.8121 30.9798 25.1862 29.3916L25.993 25.9716H25.9911ZM28.577 25.2214C28.3997 25.2214 28.2399 25.2759 28.0976 25.3889C27.9515 25.4981 27.856 25.654 27.8092 25.8586L26.8992 29.7112C26.8504 29.9158 26.8719 30.0795 26.9635 30.2023C27.059 30.325 27.1915 30.3854 27.3591 30.3854C27.5266 30.3854 27.6825 30.325 27.8345 30.2062C27.9865 30.0853 28.0879 29.9216 28.1385 29.7092L29.0486 25.8566C29.0934 25.6618 29.072 25.5059 28.9726 25.3928C28.8791 25.2779 28.7485 25.2194 28.5789 25.2194L28.577 25.2214Z" fill="#FEFEFE"/>
<path d="M30.4458 31.6034L32.2406 24.0015H33.9652L34.3588 28.7758L34.3763 28.7076C34.4017 28.5985 34.429 28.4114 34.4601 28.1464L34.5128 27.665L34.6394 26.5757L34.692 26.2444L34.7622 25.8995L35.2123 24.0015H36.9175L35.1227 31.6034H33.3981L32.9518 26.9771L32.8115 28.2282L32.7024 29.1831C32.6634 29.4676 32.6264 29.6859 32.5894 29.834L32.1743 31.6034H30.4458Z" fill="#FEFEFE"/>
<path d="M38.0265 24.0015H39.8135L38.4786 29.6566C38.3637 30.1477 38.502 30.3932 38.8937 30.3932C39.2854 30.3932 39.5446 30.1496 39.6634 29.6566L40.9983 24.0015H42.7911L41.5245 29.3604C41.3198 30.2315 40.973 30.8531 40.4858 31.2253C39.9967 31.5995 39.3594 31.7866 38.5663 31.7866C37.7732 31.7866 37.2178 31.5995 36.9119 31.2312C36.6059 30.8629 36.5553 30.2412 36.7638 29.3624L38.0285 24.0034L38.0265 24.0015Z" fill="#FEFEFE"/>
<path d="M42.4965 29.0505H44.1256L44.0165 29.526C43.9385 29.8514 43.9444 30.0775 44.0282 30.21C44.1159 30.3386 44.2718 30.4048 44.5056 30.4048C44.6849 30.4048 44.8447 30.3386 44.9811 30.2061C45.1156 30.0716 45.2149 29.8904 45.2676 29.6565C45.3202 29.4324 45.3104 29.2473 45.2364 29.107C45.1682 28.9608 45.0318 28.8069 44.8213 28.6588L43.9093 27.9806C43.3091 27.5461 43.1201 26.8523 43.3442 25.9014C43.4221 25.5681 43.5468 25.2719 43.7125 25.0128C43.8781 24.7477 44.0769 24.5295 44.3107 24.3502C44.5446 24.1748 44.8077 24.0365 45.1 23.9449C45.3942 23.8494 45.7099 23.8007 46.047 23.8007C46.4602 23.8007 46.8148 23.8845 47.1052 24.0481C47.4033 24.2157 47.608 24.473 47.7268 24.8315C47.7833 25.005 47.8106 25.1998 47.8087 25.4181C47.8087 25.6363 47.7775 25.878 47.7132 26.143L47.682 26.2716H46.0704L46.1075 26.1099C46.2595 25.4766 46.1211 25.1609 45.7002 25.1609C45.5365 25.1609 45.3884 25.2135 45.2598 25.3187C45.1409 25.4259 45.061 25.5662 45.0201 25.7396C44.9714 25.9462 44.9714 26.1157 45.0259 26.2521C45.0766 26.3846 45.1974 26.5172 45.3864 26.6497L46.3277 27.3376C46.6336 27.5656 46.848 27.8345 46.9649 28.1541C47.0156 28.3002 47.0409 28.4815 47.037 28.6997C47.035 28.918 47.0039 29.1596 46.9396 29.4324C46.8187 29.9391 46.6297 30.3678 46.3744 30.7186C46.1191 31.0674 45.8015 31.3285 45.4215 31.5039C45.0415 31.6773 44.6147 31.7631 44.1412 31.7631C43.3793 31.7631 42.8492 31.5838 42.5569 31.2252C42.2626 30.8686 42.2003 30.3308 42.3679 29.6137L42.5004 29.0505H42.4965Z" fill="#FEFEFE"/>
<path fill-rule="evenodd" clip-rule="evenodd" d="M32.1196 23.1205L32.2911 22.419H30.9173C30.9504 22.3391 31.0108 22.2572 31.0907 22.1754C31.1355 22.1325 31.1881 22.0858 31.2446 22.0351C31.3089 21.9805 31.3772 21.926 31.4434 21.8733L31.8273 21.5713C31.8507 21.5538 31.8721 21.5401 31.8955 21.5187C31.9325 21.4933 31.954 21.4719 31.9715 21.4583L32.067 21.3725C32.2463 21.2049 32.3905 21.0393 32.5016 20.8717C32.6146 20.7022 32.6984 20.5034 32.7549 20.2735C32.8075 20.0571 32.8075 19.8681 32.7529 19.7044C32.6964 19.5407 32.5951 19.4141 32.447 19.3283C32.295 19.2445 32.1157 19.2017 31.9053 19.2017C31.6948 19.2017 31.5155 19.2367 31.3382 19.3108C31.1647 19.3829 31.0127 19.4784 30.888 19.6011C30.7614 19.722 30.6581 19.8662 30.5704 20.026C30.5256 20.1039 30.4885 20.1877 30.4554 20.2754C30.4242 20.3611 30.3969 20.4547 30.3736 20.5482H31.2057C31.2622 20.3183 31.3284 20.1487 31.4083 20.0455C31.4921 19.9441 31.5876 19.8935 31.6967 19.8935C31.8059 19.8935 31.8799 19.9285 31.9072 20.0006C31.9345 20.0688 31.9325 20.1702 31.8994 20.3046C31.876 20.3943 31.8409 20.4917 31.7844 20.6047C31.7279 20.7178 31.6617 20.8054 31.5818 20.8717L31.1608 21.2166C30.9114 21.4173 30.7029 21.6025 30.5353 21.7662C30.3677 21.9299 30.2099 22.1267 30.0637 22.3586C29.9176 22.5905 29.8104 22.8477 29.7402 23.1205H32.1196Z" fill="white"/>
<path fill-rule="evenodd" clip-rule="evenodd" d="M33.1272 20.2754L32.6751 22.1228C32.6245 22.3235 32.6167 22.5028 32.6479 22.6645C32.679 22.8263 32.7667 22.9549 32.909 23.0562C33.0551 23.1575 33.2656 23.2063 33.5443 23.2063C34.316 23.2063 34.7914 22.8457 34.9688 22.1247L35.4248 20.2773C35.6021 19.5602 35.304 19.2017 34.5323 19.2017C34.2516 19.2017 34.0178 19.2504 33.8268 19.3459C33.6359 19.4414 33.4839 19.57 33.3747 19.7317C33.2617 19.8954 33.1818 20.0766 33.1311 20.2773L33.1272 20.2754ZM33.4994 22.4482C33.4761 22.3859 33.4858 22.2845 33.5189 22.1442L33.9827 20.2637C34.0159 20.1254 34.0587 20.0221 34.1113 19.9597C34.162 19.8974 34.2458 19.8642 34.3549 19.8642C34.4641 19.8642 34.5381 19.8954 34.5595 19.9617C34.5849 20.024 34.579 20.1254 34.5459 20.2637L34.0821 22.1442C34.049 22.2845 34.0042 22.3859 33.9496 22.4482C33.8989 22.5106 33.8112 22.5437 33.6943 22.5437C33.5852 22.5437 33.5209 22.5125 33.4975 22.4482H33.4994Z" fill="white"/>
<path fill-rule="evenodd" clip-rule="evenodd" d="M37.4631 23.1205L37.6346 22.419H36.2608C36.2939 22.3391 36.3543 22.2572 36.4342 22.1754C36.479 22.1325 36.5316 22.0858 36.5881 22.0351C36.6525 21.9805 36.7207 21.926 36.7869 21.8733L37.1708 21.5713C37.1942 21.5538 37.2156 21.5401 37.239 21.5187C37.276 21.4933 37.2975 21.4719 37.315 21.4583L37.4105 21.3725C37.5898 21.2049 37.734 21.0393 37.8451 20.8717C37.9581 20.7022 38.0419 20.5034 38.0984 20.2735C38.151 20.0571 38.151 19.8681 38.0964 19.7044C38.0399 19.5407 37.9386 19.4141 37.7905 19.3283C37.6385 19.2445 37.4592 19.2017 37.2488 19.2017C37.0383 19.2017 36.859 19.2367 36.6817 19.3108C36.5082 19.3829 36.3562 19.4784 36.2315 19.6011C36.1049 19.722 36.0016 19.8662 35.9139 20.026C35.8691 20.1039 35.832 20.1877 35.7989 20.2754C35.7677 20.3611 35.7405 20.4547 35.7171 20.5482H36.5492C36.6057 20.3183 36.6719 20.1487 36.7518 20.0455C36.8356 19.9441 36.9311 19.8935 37.0402 19.8935C37.1494 19.8935 37.2234 19.9285 37.2507 20.0006C37.278 20.0688 37.276 20.1702 37.2429 20.3046C37.2195 20.3943 37.1806 20.4917 37.1279 20.6047C37.0714 20.7178 37.0052 20.8054 36.9253 20.8717L36.5044 21.2166C36.2549 21.4173 36.0464 21.6025 35.8788 21.7662C35.7112 21.9299 35.5534 22.1267 35.4072 22.3586C35.2611 22.5905 35.1519 22.8477 35.0837 23.1205H37.4631Z" fill="white"/>
<path fill-rule="evenodd" clip-rule="evenodd" d="M40.3219 21.8813L40.3531 21.7585C40.546 20.9673 40.3726 20.5698 39.8328 20.5698C39.5716 20.5698 39.3436 20.6828 39.1468 20.903L39.3105 20.2385C39.369 20.0047 39.4878 19.8877 39.671 19.8877C39.7665 19.8877 39.8308 19.9228 39.8678 19.9891C39.9049 20.0553 39.9107 20.1391 39.8854 20.2385H40.698C40.7545 19.9988 40.7565 19.802 40.6999 19.6461C40.6434 19.4902 40.5401 19.3791 40.394 19.309C40.2459 19.2408 40.0627 19.2057 39.8406 19.2057C39.6379 19.2057 39.445 19.2466 39.2598 19.3246C39.0747 19.4045 38.9149 19.5233 38.7824 19.6851C38.6479 19.8468 38.5525 20.0456 38.496 20.2775L38.0516 22.082C38.0185 22.2164 38.001 22.3412 38.001 22.4503C38.001 22.5594 38.0185 22.6608 38.0458 22.7406C38.114 22.9082 38.2192 23.0291 38.3654 23.1012C38.5115 23.1733 38.683 23.2083 38.8759 23.2083C39.139 23.2083 39.3709 23.1538 39.5638 23.0446C39.7568 22.9355 39.9146 22.7855 40.0354 22.5925C40.1562 22.3996 40.2517 22.1638 40.3219 21.8852V21.8813ZM38.8779 22.4425C38.8467 22.4016 38.835 22.3334 38.8448 22.2359C38.8545 22.1385 38.8779 22.0021 38.9208 21.8325C38.9461 21.7293 38.9714 21.6396 39.0026 21.5675C39.0299 21.4935 39.0591 21.4331 39.0903 21.3863C39.1546 21.2908 39.2443 21.2421 39.3592 21.2421C39.4742 21.2421 39.5444 21.2908 39.5638 21.3882C39.5775 21.437 39.5814 21.5013 39.5716 21.5714C39.5638 21.6435 39.5463 21.7332 39.521 21.8364C39.4781 22.004 39.4372 22.1385 39.3924 22.2418C39.3475 22.3451 39.2988 22.4113 39.252 22.4483C39.2209 22.4678 39.1936 22.4834 39.1624 22.4912C39.1351 22.4971 39.0942 22.499 39.0494 22.499C38.9675 22.499 38.9091 22.4795 38.8779 22.4386V22.4425Z" fill="white"/>
<path fill-rule="evenodd" clip-rule="evenodd" d="M48.5572 45.1625H11.6389L14.6341 32.603H51.5504L48.5572 45.1625Z" fill="white" stroke="black" stroke-miterlimit="10"/>
<path d="M18.204 39.6125L17.1497 43.8003H14.8191L17.3134 33.8774H19.6441L18.7048 37.6229H20.2268L21.168 33.8774H23.5064L21.0101 43.8003H18.6736L19.7259 39.6125H18.204Z" fill="black"/>
<path d="M24.1613 36.4478C24.2938 35.9216 24.5257 35.4462 24.857 35.0233C25.1863 34.6004 25.6209 34.2672 26.1548 34.0255C26.6907 33.782 27.3084 33.6631 28.0197 33.6631C28.731 33.6631 29.2727 33.782 29.68 34.0255C30.0931 34.2672 30.3562 34.6004 30.4712 35.0233C30.5862 35.4462 30.5745 35.9236 30.4439 36.4595L29.3234 40.9123C29.1909 41.4306 29.0194 41.8808 28.8031 42.2608C28.5868 42.6408 28.312 42.9623 27.9768 43.2274C27.326 43.7574 26.4627 44.0244 25.3987 44.0244C23.3038 44.0244 22.5166 42.9857 23.0369 40.9123L24.1613 36.4478ZM27.552 35.4695C27.3221 35.4695 27.1136 35.5416 26.9226 35.6858C26.7297 35.8301 26.5991 36.0347 26.5329 36.2977L25.2681 41.3254C25.1999 41.5924 25.2253 41.8087 25.3461 41.9704C25.4669 42.1283 25.6345 42.2101 25.8547 42.2101C26.0749 42.2101 26.2815 42.1322 26.4802 41.9763C26.6829 41.8204 26.8174 41.6021 26.8875 41.3254L28.1522 36.2977C28.2165 36.0425 28.1893 35.8398 28.0626 35.6936C27.9418 35.5436 27.7703 35.4695 27.552 35.4695Z" fill="black"/>
<path d="M37.8469 33.8774H41.1032L38.6069 43.8022H36.3795L37.2565 40.3218L37.4279 39.6593L37.8664 38.0535L38.4627 35.9937L35.0447 43.8003H33.4233L33.9436 35.9937L33.8852 36.2373C33.8482 36.3757 33.7916 36.6173 33.7137 36.9622C33.6377 37.3072 33.5929 37.5059 33.5792 37.5527L33.2538 39.0649L32.9732 40.3043L32.0943 43.8003H29.8689L32.3652 33.8755H35.6117L35.3565 37.8976C35.3487 38.1139 35.2746 38.6771 35.1421 39.5911L34.9141 41.035H34.9414L35.4773 39.5306C35.7832 38.6362 35.982 38.0886 36.0775 37.8976L37.8469 33.8755V33.8774Z" fill="black"/>
<path d="M40.0237 43.8003L42.518 33.8774H47.9393L47.4678 35.7599H44.379L43.8958 37.6774H46.7545L46.279 39.5579H43.4222L42.8279 41.9198H45.9166L45.445 43.8003H40.0237Z" fill="black"/>
</svg>
