<svg width="47" height="47" viewBox="0 0 47 47" fill="none" xmlns="http://www.w3.org/2000/svg">
<g clip-path="url(#clip0_49_6)">
<path d="M11.041 44.8296C19.3985 45.0124 27.6702 45.0361 35.9561 44.8247C40.6977 44.7034 44.4123 40.7587 44.9746 35.9966V10.9595C44.4215 6.16417 40.837 2.5788 36.043 2.02588H10.877C8.72004 2.02588 6.57388 3.0752 4.91406 4.80615C3.35506 6.43198 2.36003 8.52263 2.19824 10.5601L2.17676 10.9663C1.97106 19.4358 1.97943 27.5439 2.1748 35.9614V35.9624C2.28148 40.563 6.43387 44.7287 11.041 44.8296ZM34.334 35.8765C27.1082 36.416 19.92 36.3543 12.7305 35.9067L12.6328 35.9009L12.5361 35.8853C10.5684 35.5673 9.15654 34.5713 8.28711 33.1118C7.58715 31.9368 7.31211 30.5828 7.19824 29.3413L7.15918 28.8169C6.96904 25.6832 6.94839 22.601 7.08691 19.4858L7.15625 18.1479C7.22136 17.0417 7.39176 15.6535 7.97461 14.4058C8.59752 13.0726 9.70341 11.8893 11.4932 11.4048C12.5702 11.113 13.6205 11.0108 14.6396 10.9839H14.6416L24.1553 10.7397L26.207 10.687V10.7231C28.9737 10.7363 31.6337 10.9048 34.3145 11.1089H34.3154C36.0817 11.2442 37.8204 12.1992 38.7559 13.8511L38.7568 13.853C39.5743 15.3 39.8012 16.8001 39.8818 18.144V18.145C40.0987 21.7764 40.1063 25.3512 39.8672 28.9878V28.9888L39.832 29.4468C39.7357 30.5362 39.5209 31.7758 38.8594 32.9897C37.9687 34.6232 36.2371 35.734 34.335 35.8765H34.334Z" stroke="black" stroke-width="4"/>
<path d="M28.3951 24.829C29.0882 24.4471 29.0841 23.4497 28.3879 23.0735L20.477 18.7982C19.8104 18.4379 19.0009 18.9212 19.0016 19.6789L19.0097 28.309C19.0105 29.0695 19.8263 29.5509 20.4924 29.1839L28.3951 24.829Z" fill="black"/>
</g>
<defs>
<clipPath id="clip0_49_6">
<rect width="47" height="47" fill="white" transform="matrix(1 0 0 -1 0 47)"/>
</clipPath>
</defs>
</svg>
